<?xml version="1.0" encoding="UTF-8" standalone="no"?>
<!-- Created with Inkscape (http://www.inkscape.org/) -->

<svg
   width="41.384869mm"
   height="41.778244mm"
   viewBox="0 0 41.384869 41.778244"
   version="1.1"
   id="svg5"
   xml:space="preserve"
   inkscape:version="1.2.2 (b0a8486541, 2022-12-01, custom)"
   sodipodi:docname="ilustra-logo-color.svg"
   xmlns:inkscape="http://www.inkscape.org/namespaces/inkscape"
   xmlns:sodipodi="http://sodipodi.sourceforge.net/DTD/sodipodi-0.dtd"
   xmlns="http://www.w3.org/2000/svg"
   xmlns:svg="http://www.w3.org/2000/svg"><sodipodi:namedview
     id="namedview7"
     pagecolor="#ffffff"
     bordercolor="#666666"
     borderopacity="1.0"
     inkscape:showpageshadow="2"
     inkscape:pageopacity="0.0"
     inkscape:pagecheckerboard="0"
     inkscape:deskcolor="#d1d1d1"
     inkscape:document-units="mm"
     showgrid="false"
     inkscape:zoom="2.3987666"
     inkscape:cx="77.539849"
     inkscape:cy="80.458015"
     inkscape:window-width="1366"
     inkscape:window-height="731"
     inkscape:window-x="0"
     inkscape:window-y="0"
     inkscape:window-maximized="1"
     inkscape:current-layer="layer1" /><defs
     id="defs2" /><g
     inkscape:label="Layer 1"
     inkscape:groupmode="layer"
     id="layer1"
     transform="translate(-62.398106,-109.53366)"><path
       id="path3424"
       style="color:#000000;fill:#5be397;-inkscape-stroke:none;fill-opacity:1"
       d="M 91.585472 109.9264 L 91.675389 112.08493 C 91.669635 112.23555 91.670536 112.25852 91.661953 112.43167 C 91.650113 112.67063 91.635728 112.91158 91.621128 113.07401 C 91.616128 113.12981 91.612863 113.15328 91.609243 113.1815 L 91.599424 113.21302 C 91.508596 113.52411 91.415799 113.83066 91.321405 114.13493 C 90.330195 113.71218 88.998719 113.37055 87.39658 113.49207 C 83.715998 113.77124 77.137612 116.4731 72.324115 123.16797 C 70.262485 126.0354 69.854551 126.84128 68.054608 129.09577 C 67.120093 130.2663 65.774714 132.07127 64.626911 133.95904 C 63.479107 135.84682 62.485002 137.74602 62.40224 139.49411 C 62.29679 141.72138 64.029442 143.58893 65.982383 145.17955 C 67.935324 146.77014 70.251068 148.06128 71.993903 148.7168 C 72.42081 148.87737 72.848784 149.0347 73.278062 149.18964 C 73.53709 149.28309 73.796962 149.37521 74.057859 149.46559 C 79.430997 151.32754 85.279774 152.45423 94.910333 149.44337 C 94.957193 149.43437 97.342457 148.96069 99.617023 146.99597 C 101.91398 145.01191 104.08818 141.43497 103.74804 135.61734 C 103.24799 127.06479 97.856412 120.15254 95.025572 117.081 C 94.927778 115.93617 94.823334 114.92534 94.707245 114.10547 C 94.606177 113.39168 94.52197 112.84978 94.372898 112.38103 L 94.373932 112.38051 C 94.373932 112.38051 94.370579 112.3748 94.370315 112.37431 C 94.328498 112.24359 94.282649 112.11736 94.228721 111.99604 C 94.042988 111.57822 93.838208 111.27266 93.663898 111.06225 C 93.490357 110.85277 93.283833 110.69365 93.282009 110.69225 C 92.90012 110.32225 91.585472 109.9264 91.585472 109.9264 z M 88.066823 115.46508 C 89.184444 115.46012 90.064282 115.72131 90.701805 116.01285 C 88.12008 123.413 84.496788 128.84633 80.92359 134.62102 L 80.603713 135.13675 L 80.839358 135.53156 L 80.76391 135.55481 L 80.769594 135.57238 L 80.767527 135.57238 C 80.767527 135.57238 82.332673 140.50372 83.204588 143.70263 C 77.336173 143.62483 71.936145 143.13215 66.342051 142.666 L 66.17462 142.65205 C 65.045907 141.49979 64.365106 140.33665 64.400568 139.58764 C 64.445378 138.64114 65.255186 136.77559 66.33585 134.99826 C 67.416515 133.2209 68.72537 131.46095 69.617304 130.34376 C 71.470262 128.02284 71.916734 127.16002 73.947272 124.33586 C 78.394511 118.15038 84.712644 115.70125 87.546959 115.48627 C 87.725499 115.47273 87.898811 115.46583 88.066823 115.46508 z M 92.322894 117.1797 C 92.514105 117.36755 92.782367 117.64273 93.091323 117.96984 C 93.290836 120.50455 93.457126 123.66499 93.578115 126.93932 C 93.80828 133.16825 93.825478 139.21831 93.703172 142.65619 C 92.492345 140.72803 90.348773 139.44957 88.279214 138.35361 C 85.979444 137.13573 83.935557 136.0065 83.040774 134.97655 C 86.015679 130.1926 89.059367 125.38171 91.487803 119.3713 C 91.775592 118.65902 92.053518 117.92763 92.322894 117.1797 z M 95.271552 120.49888 C 97.968879 123.9211 101.3832 129.43058 101.75178 135.73464 C 101.9275 138.74023 101.40473 140.94741 100.57304 142.59417 C 98.916284 142.8278 97.313813 143.02006 95.760411 143.17398 C 95.883042 139.55733 95.804295 133.04575 95.575926 126.86542 C 95.493765 124.6419 95.39159 122.47077 95.271552 120.49888 z M 83.630402 138.16085 C 84.782569 138.86148 86.093024 139.45854 87.34387 140.12094 C 89.254473 141.13273 90.972393 142.21978 91.906899 143.48766 C 89.613416 143.63447 87.417777 143.70277 85.291799 143.71194 L 83.630402 138.16085 z M 98.673928 144.78732 C 98.176248 145.20959 97.616521 145.64019 97.021316 146.01774 C 95.63079 146.89976 94.352111 147.4977 94.296934 147.52359 C 85.707543 150.21242 80.667415 149.53294 75.864467 147.97317 C 75.562865 147.87484 75.261798 147.77393 74.961163 147.66932 C 74.932059 147.65922 74.902934 147.6495 74.87383 147.63934 C 74.152704 147.38712 73.431871 147.11907 72.699286 146.84353 C 72.681428 146.83681 72.662076 146.82874 72.643992 146.82182 C 72.57769 146.79351 72.135687 146.58404 71.619249 146.30092 C 71.082231 146.00655 70.422791 145.62471 69.771299 145.21675 C 69.579784 145.09682 69.430909 144.97824 69.2442 144.85553 C 76.588651 145.46642 83.964272 145.96853 92.727521 145.35628 L 92.753876 145.4431 L 95.663776 145.11495 L 95.663776 145.11392 C 96.64877 145.01967 97.65104 144.91169 98.673928 144.78732 z " /></g></svg>
