<?xml version="1.0" encoding="UTF-8" standalone="no"?>
<!-- Created with Inkscape (http://www.inkscape.org/) -->

<svg
   xmlns:dc="http://purl.org/dc/elements/1.1/"
   xmlns:cc="http://creativecommons.org/ns#"
   xmlns:rdf="http://www.w3.org/1999/02/22-rdf-syntax-ns#"
   xmlns:svg="http://www.w3.org/2000/svg"
   xmlns="http://www.w3.org/2000/svg"
   xmlns:sodipodi="http://sodipodi.sourceforge.net/DTD/sodipodi-0.dtd"
   xmlns:inkscape="http://www.inkscape.org/namespaces/inkscape"
   version="1.1"
   id="svg80"
   width="199.78027"
   height="198.07681"
   viewBox="0 0 199.78028 198.07681"
   sodipodi:docname="logo.svg"
   inkscape:version="0.92.5 (2060ec1f9f, 2020-04-08)">
  <metadata
     id="metadata86">
    <rdf:RDF>
      <cc:Work
         rdf:about="">
        <dc:format>image/svg+xml</dc:format>
        <dc:type
           rdf:resource="http://purl.org/dc/dcmitype/StillImage" />
        <dc:title></dc:title>
      </cc:Work>
    </rdf:RDF>
  </metadata>
  <defs
     id="defs84" />
  <sodipodi:namedview
     pagecolor="#ffffff"
     bordercolor="#666666"
     borderopacity="1"
     objecttolerance="10"
     gridtolerance="10"
     guidetolerance="10"
     inkscape:pageopacity="0"
     inkscape:pageshadow="2"
     inkscape:window-width="1366"
     inkscape:window-height="704"
     id="namedview82"
     showgrid="false"
     inkscape:zoom="0.92897957"
     inkscape:cx="180.66183"
     inkscape:cy="45.662557"
     inkscape:window-x="1366"
     inkscape:window-y="27"
     inkscape:window-maximized="1"
     inkscape:current-layer="svg80" />
  <g
     id="g4627"
     transform="translate(254.19959,79.846903)">
    <path
       style="fill:#44ffd2;fill-opacity:1;stroke-width:1.99999952"
       d="m -184.79799,114.78322 c -18.1948,-3.06625 -30.81373,-9.45073 -49.25447,-24.920058 -18.63922,-15.63582 -23.73565,-27.4851 -17.79678,-41.377793 1.375,-3.21652 11.0482,-18.39484 21.49599,-33.729608 38.88124,-57.067973 79.38634,-86.872899 107.35781,-78.997259 29.212461,16.211728 0.47333,-3.66977 32.805621,21.241698 7.60063,7.248649 22.27315,29.119088 26.75092,39.8741645 4.98728,11.978862 9.0987,33.6932645 9.01842,47.6307345 -0.18872,32.766933 -12.43268,54.125803 -37.03641,64.607881 -19.343781,8.24115 -62.521361,10.86408 -93.341101,5.67024 z"
       id="path108"
       inkscape:connector-curvature="0"
       sodipodi:nodetypes="ssssccssss" />
    <path
       style="fill:#1ddbad;fill-opacity:1;stroke-width:1.99999952"
       d="m -172.99892,116.80503 c -21.86828,-4.31668 -39.74507,-11.75714 -36.36628,-15.13593 0.56884,-0.56884 14.60896,-0.93455 31.20027,-0.8127 21.99959,0.16159 29.4779,-0.932382 30.70423,0.27948 5.55603,5.49044 1.90156,-15.083722 -2.15597,-27.246612 -9.63132,-28.870924 -12.14215,-31.529634 -1.20942,-48.473594 9.72457,-15.071504 27.37468,-46.873594 34.67655,-65.293224 2.61636,-6.6 6.01095,-16.93437 8.53027,-20.66287 2.51932,-3.7285 2.69489,-7.89071 3.50414,-8.986 0,0 -0.4652,-4.19156 1.26864,-5.63052 4.603613,-3.82065 6.779553,0.69269 6.816943,14.1397 0.0169,6.05726 0.98555,14.15726 2.15268,18 1.22915,4.04696 2.48772,35.1783341 2.99111,73.986754 l 0.86907,66.999974 6.37884,1 c 5.83223,0.91431 6.1057,1.272052 3.1913,4.174732 -1.75315,1.74609 -10.69463,5.68383 -19.869963,8.75052 -13.53916,4.52522 -21.016,5.69906 -39.68241,6.23001 -12.65,0.35983 -27.5,-0.23405 -33,-1.31972 z m 30.5,-5.2142 c -1.925,-0.50305 -5.075,-0.50305 -7,0 -1.925,0.50306 -0.35,0.91465 3.5,0.91465 3.85,0 5.425,-0.41159 3.5,-0.91465 z"
       id="path102"
       inkscape:connector-curvature="0"
       sodipodi:nodetypes="ssssssssssccscscsssccsc" />
    <path
       style="fill:#39403e;fill-opacity:1;stroke-width:1.99999952"
       d="m -171.65003,113.6766 c -13.02277,-2.40337 -34.64095,-9.50812 -36.09631,-11.86295 -0.67756,-1.09631 11.88485,-1.844162 30.97828,-1.844162 28.48672,0 32.11803,-0.37233 32.11803,-3.29315 0,-1.81123 -2.76885,-11.93622 -6.153,-22.499994 -9.81768,-30.646324 -9.82438,-34.905724 -0.08,-50.826134 11.25015,-18.380557 25.80284,-47.839506 37.23796,-75.380663 9.70621,-23.377119 13.686123,-29.975598 16.426843,-27.234877 2.70976,2.709762 4.35081,32.669679 5.79161,105.73484 l 1.40993,71.499978 h 5.68334 c 3.12584,0 5.68334,0.80869 5.68334,1.79709 0,2.370512 -26.119203,11.709722 -39.772983,14.221262 -12.96411,2.38469 -39.45849,2.22976 -53.22702,-0.31124 z m 56.5,-4.99647 c 14.09882,-2.50701 4.98197,-3.72514 -27.39272,-3.66003 -40.81762,0.0821 -46.6913,2.16918 -16.10728,5.72338 7.87554,0.91523 33.61541,-0.3057 43.5,-2.06335 z m 1.17827,-12.210642 c 0.50288,-0.825 -0.77259,-9.15 -2.83438,-18.49999 -4.07063,-18.459894 -4.86899,-31.130378 -2.0705,-32.859938 3.87044,-2.39207 6.2448,5.18997 8.6149,27.509924 2.49414,23.488064 5.75172,30.149946 8.36171,17.100004 1.74312,-8.7156 1.2976,-137.914095 -0.49126,-142.462365 -1.11784,-2.842178 -2.79725,-0.263627 -7.1643,10.999995 -8.61122,22.210334 -21.62022,47.304747 -31.47344,60.712397 -4.8503,6.599995 -9.52305,13.158465 -10.38387,14.574375 -0.9448,1.55402 2.39297,11.06637 8.42131,23.999984 5.49255,11.78409 11.81574,25.700624 14.05154,30.925614 3.29998,7.71194 5.00513,9.5 9.05953,9.5 2.74693,0 5.40587,-0.675 5.90876,-1.5 z"
       id="path98"
       inkscape:connector-curvature="0" />
  </g>
</svg>
