<?xml version="1.0" encoding="UTF-8" standalone="no"?>
<!-- Created with Inkscape (http://www.inkscape.org/) -->

<svg
   width="41.385662mm"
   height="41.37825mm"
   viewBox="0 0 41.385662 41.37825"
   version="1.1"
   id="svg5"
   xml:space="preserve"
   inkscape:version="1.2.2 (b0a8486541, 2022-12-01, custom)"
   sodipodi:docname="artstation.svg"
   xmlns:inkscape="http://www.inkscape.org/namespaces/inkscape"
   xmlns:sodipodi="http://sodipodi.sourceforge.net/DTD/sodipodi-0.dtd"
   xmlns="http://www.w3.org/2000/svg"
   xmlns:svg="http://www.w3.org/2000/svg"><sodipodi:namedview
     id="namedview7"
     pagecolor="#ffffff"
     bordercolor="#666666"
     borderopacity="1.0"
     inkscape:showpageshadow="2"
     inkscape:pageopacity="0.0"
     inkscape:pagecheckerboard="0"
     inkscape:deskcolor="#d1d1d1"
     inkscape:document-units="mm"
     showgrid="false"
     inkscape:zoom="2.3987666"
     inkscape:cx="60.864613"
     inkscape:cy="85.460586"
     inkscape:window-width="1366"
     inkscape:window-height="731"
     inkscape:window-x="0"
     inkscape:window-y="0"
     inkscape:window-maximized="1"
     inkscape:current-layer="layer1"
     showguides="true" /><defs
     id="defs2" /><g
     inkscape:label="Layer 1"
     inkscape:groupmode="layer"
     id="layer1"
     transform="translate(-62.397726,-109.73365)"><g
       id="path6929"
       transform="matrix(0.67769085,0,0,0.67769085,45.486092,47.117948)"
       style="fill:#f9f9f9"><path
         style="color:#000000;fill:#f9f9f9;stroke-width:1.965;-inkscape-stroke:none"
         d="m 48.373745,97.57018 c -1.096697,0.76223 0.18759,2.38648 0.631296,3.16764 1.558661,2.74373 3.140604,5.47309 4.724665,8.20208 5.922962,10.20535 11.817085,20.4343 17.649031,30.69167 1.358635,2.38972 2.740819,4.76541 4.119298,7.14348 0.478367,0.82498 1.195123,2.21536 2.365644,1.57533 1.72508,-0.94324 2.92893,-4.65481 3.84122,-6.33756 1.18718,-2.19022 3.33666,-4.82441 3.33666,-7.40833 0,-2.74559 -2.33945,-5.6097 -3.60125,-7.9375 -3.06281,-5.64957 -6.074037,-11.33518 -9.229987,-16.93334 -1.915054,-3.39719 -3.766608,-9.44925 -6.995318,-11.73353 -2.766484,-1.95725 -9.394032,-0.70188 -12.696031,-0.70188 -1.113103,0 -3.189288,-0.39222 -4.145228,0.27194 m 29.016061,47.88222 c -4.055534,-4.33096 -6.653477,-11.26305 -9.637184,-16.40416 -3.524779,-6.07325 -6.931289,-12.22322 -10.524331,-18.25625 -2.10185,-3.52933 -5.05751,-7.46104 -6.296818,-11.37709 h 8.995833 c 1.192477,0 2.859881,-0.28739 3.940969,0.31195 2.170906,1.20356 3.59066,5.77659 4.790281,7.89014 3.615266,6.36878 7.089775,12.84703 10.525123,19.31458 1.13824,2.14286 3.70681,5.17869 3.70681,7.67292 0,3.21548 -3.89519,8.09995 -5.500683,10.84791 M 43.546819,104.48853 c -1.452112,0.55226 -2.596753,3.44868 -3.357509,4.71596 -2.603209,4.33644 -5.227056,8.66521 -7.89096,12.96458 -0.698738,1.12765 -3.494087,4.36906 -2.763017,5.7367 0.701913,1.31312 5.277061,0.6133 6.579473,0.6133 h 15.345833 c 1.763713,0 4.685242,0.56118 6.309783,-0.15954 1.843882,-0.81836 -1.108604,-4.41405 -1.727464,-5.39671 -3.026569,-4.80499 -5.922433,-9.69777 -8.869363,-14.55208 -0.605869,-0.99806 -2.098675,-4.50334 -3.626776,-3.92221 m 0.505487,2.86387 c 3.668448,5.99292 8.965406,12.46291 11.377083,19.05 h -23.01875 l 5.76715,-9.78958 5.874517,-9.26042 m -17.64194,26.46574 c -1.243066,0.84508 0.305805,2.81596 0.789463,3.69676 1.64129,2.989 3.575209,8.70638 6.544337,10.52301 2.050124,1.25413 5.608161,0.58949 7.92689,0.58949 h 19.05 c 1.93331,0 6.506369,0.84693 8.113977,-0.27199 1.162314,-0.8091 -0.468577,-2.86411 -0.933186,-3.69676 -1.435364,-2.57122 -2.917295,-5.11836 -4.381764,-7.67291 -0.558006,-0.97314 -1.121833,-2.5527 -2.105554,-3.1676 -1.652323,-1.03293 -5.650971,-0.27199 -7.57264,-0.27199 H 34.527306 c -1.956938,0 -6.477767,-0.84243 -8.11694,0.27199 m 39.86694,12.6926 h -22.225 c -2.394903,0 -6.850459,0.8583 -8.984403,-0.272 -1.140196,-0.60404 -1.744742,-2.08835 -2.331641,-3.16759 -1.333474,-2.45189 -2.951877,-4.83288 -4.029789,-7.40833 h 22.225 l 9.157229,0.15954 1.880923,2.75088 z"
         id="path7671" /><path
         style="color:#000000;fill:#f9f9f9;-inkscape-stroke:none"
         d="m 59.039062,95.933594 c -2.481187,0.07107 -4.993043,0.382812 -6.519531,0.382812 -0.441151,0 -1.26604,-0.0969 -2.113281,-0.113281 -0.847241,-0.01638 -1.767635,-0.01341 -2.59375,0.560547 -0.482247,0.335173 -0.79307,0.903965 -0.84375,1.416015 -0.05068,0.512051 0.07722,0.948666 0.230469,1.332032 0.306505,0.766731 0.785944,1.420051 0.951172,1.710941 1.561462,2.74866 3.146199,5.48158 4.730468,8.21093 5.921931,10.20358 11.81446,20.42952 17.644532,30.6836 1.361861,2.39539 2.745095,4.77323 4.123046,7.15039 0.225852,0.3895 0.537049,1.01899 1.091797,1.55273 0.277374,0.26688 0.640017,0.52362 1.113282,0.62891 0.473264,0.10529 1.021378,0.0158 1.482421,-0.23633 1.25408,-0.68571 1.972571,-2.00127 2.63086,-3.3125 0.658289,-1.31123 1.203366,-2.68544 1.601562,-3.41992 1.10769,-2.04357 3.455079,-4.74816 3.455078,-7.87695 0,-3.3037 -2.538509,-6.22696 -3.71875,-8.4043 -3.059769,-5.64396 -6.073874,-11.33411 -9.238281,-16.94727 -0.90148,-1.59917 -1.850059,-3.96768 -2.980469,-6.24023 -1.130409,-2.27255 -2.426694,-4.487175 -4.302734,-5.814454 -1.766075,-1.249475 -4.262953,-1.334742 -6.744141,-1.263672 z m 0.05664,1.96289 c 2.349702,-0.0673 4.552328,0.198477 5.552734,0.90625 1.352668,0.956999 2.596428,2.910146 3.677735,5.083986 1.081307,2.17384 2.013772,4.53206 3.027344,6.33008 3.147487,5.58315 6.156812,11.2628 9.222656,16.91797 1.343357,2.47825 3.482422,5.28127 3.482422,7.46875 0,0.50976 -0.363684,1.11603 -0.566407,1.67968 0.144265,-0.56096 0.38086,-1.12753 0.38086,-1.67968 0,-1.58438 -0.745184,-3.07346 -1.560547,-4.46485 -0.815363,-1.39139 -1.746057,-2.69718 -2.261719,-3.66797 -3.436585,-6.46988 -6.914056,-12.95539 -10.537109,-19.33789 -0.531788,-0.93693 -1.202855,-2.62865 -2.00586,-4.24023 C 66.704808,101.281 65.811274,99.680789 64.34375,98.867187 62.77151,97.99556 60.962354,98.431641 59.927734,98.431641 h -10.33789 l 0.404297,1.279296 c 0.515241,1.628093 1.406122,3.188083 2.28125,4.736333 -0.806453,-1.3975 -1.619596,-2.79337 -2.416016,-4.19532 -0.278478,-0.490268 -0.663547,-1.039461 -0.835938,-1.4707 -0.0862,-0.21562 -0.100752,-0.376919 -0.09766,-0.408203 0.0031,-0.03128 -0.05829,0.04985 0.0078,0.0039 0.129824,-0.0902 0.727436,-0.222674 1.435547,-0.208984 0.708111,0.01369 1.478439,0.113281 2.15039,0.113281 1.775509,0 4.22647,-0.317463 6.576172,-0.384766 z m -6.603516,2.499996 h 7.435547 c 1.350333,0 2.874911,-0.13759 3.464844,0.18946 0.70338,0.38995 1.605966,1.67938 2.355469,3.18359 0.749503,1.50421 1.388808,3.15541 2.05664,4.33203 3.607472,6.35505 7.077615,12.82581 10.511719,19.29102 0.622577,1.17207 1.547301,2.45444 2.300781,3.74023 0.753481,1.28579 1.291016,2.56085 1.291016,3.47071 0,1.21101 -0.864939,3.17881 -2.009766,5.0957 -0.879849,1.47321 -1.774684,2.78643 -2.580078,4.04101 -3.398305,-4.15494 -5.889962,-10.31473 -8.716797,-15.18554 -3.518182,-6.06189 -6.925753,-12.21496 -10.529296,-18.26563 -1.900625,-3.19144 -4.229376,-6.60138 -5.580079,-9.89258 z m -8.1875,3.10157 c -0.354963,-0.0753 -0.738205,-0.0682 -1.107421,0.0723 -1.179304,0.44851 -1.834668,1.49513 -2.433594,2.50782 -0.598926,1.01268 -1.093726,2.08421 -1.416016,2.62109 -2.601764,4.33403 -5.224243,8.65921 -7.884765,12.95312 -0.262397,0.42347 -1.179355,1.58431 -1.917969,2.77735 -0.369307,0.59652 -0.706481,1.21299 -0.917969,1.85156 -0.211488,0.63857 -0.340533,1.37411 0.04102,2.08789 0.401769,0.75162 1.126197,1.00035 1.798828,1.14648 0.67263,0.14614 1.405049,0.17759 2.140625,0.17188 1.471152,-0.0114 3.032581,-0.18555 3.507812,-0.18555 H 51.46094 c 0.777652,0 1.959585,0.13705 3.164063,0.18946 1.204478,0.0524 2.44473,0.0536 3.542969,-0.4336 h 0.002 c 0.793669,-0.35225 1.217788,-1.283 1.175781,-2.00586 -0.04201,-0.72286 -0.320584,-1.35996 -0.644531,-1.98242 -0.647895,-1.24491 -1.604233,-2.47767 -1.826172,-2.83008 -3.016891,-4.78962 -5.910593,-9.67848 -8.861328,-14.53906 -0.223917,-0.36886 -0.78988,-1.5722 -1.498047,-2.59961 -0.354084,-0.5137 -0.746227,-1.00716 -1.267578,-1.38281 -0.260676,-0.18783 -0.588396,-0.34464 -0.94336,-0.41992 z m -0.408203,1.9082 c 0.02562,-0.01 -0.0061,-0.0419 0.201172,0.10742 0.207261,0.14934 0.512965,0.48566 0.798828,0.90039 0.571727,0.82946 1.055549,1.87667 1.4375,2.50586 0.235161,0.38737 0.474301,0.77613 0.708985,1.16406 -0.714255,-1.06813 -1.519881,-2.21092 -2.152344,-3.24414 l -0.837891,0.51172 -0.830078,-0.52539 -5.882812,9.27344 -6.648438,11.28516 h 26.144531 l -0.484375,-1.32032 c -0.36246,-0.99 -0.887208,-1.95645 -1.355468,-2.93164 0.07347,0.11699 0.141211,0.23662 0.214843,0.35352 0.396921,0.63025 1.225956,1.68627 1.748047,2.68945 0.261046,0.50159 0.41345,0.9792 0.425782,1.19141 0.01233,0.2122 0.114599,0.0368 -0.01367,0.0937 -0.526301,0.23349 -1.556808,0.31558 -2.660157,0.26758 -1.103348,-0.048 -2.26394,-0.19141 -3.25,-0.19141 H 36.115234 c -0.827179,0 -2.205937,0.17533 -3.523437,0.18555 -0.65875,0.005 -1.283709,-0.035 -1.707031,-0.12696 -0.423322,-0.092 -0.533235,-0.2474 -0.482422,-0.15234 0.01601,0.03 -0.03902,-0.15389 0.08984,-0.54297 0.128862,-0.38908 0.399122,-0.9098 0.72461,-1.43555 0.650976,-1.05148 1.479675,-2.07316 1.916015,-2.77734 2.667281,-4.30482 5.293789,-8.63772 7.898438,-12.97656 0.438465,-0.73041 0.897218,-1.74241 1.423828,-2.63281 0.526611,-0.89041 1.168599,-1.56813 1.441406,-1.67188 z m 10.511719,2.74219 c 0.679454,1.05878 1.390593,2.16255 1.976563,3.14648 3.582533,6.01539 6.98621,12.16149 10.517578,18.2461 0.574207,0.98939 1.160691,2.22507 1.724609,3.33398 -4.661059,-8.15529 -9.333035,-16.30572 -14.046875,-24.42773 -0.05773,-0.0995 -0.114154,-0.19938 -0.171875,-0.29883 z m -10.337891,1.01172 c 3.371411,5.28221 7.48873,10.78282 9.820313,16.25976 H 34.128906 l 4.886719,-8.29492 z m -13.67578,23.12304 c -1.636561,-0.0739 -3.275028,-0.13539 -4.537109,0.72266 -0.53606,0.36443 -0.857833,0.99818 -0.896485,1.55469 -0.03865,0.55651 0.110676,1.03442 0.289063,1.46679 0.356774,0.86475 0.910226,1.63739 1.087891,1.96094 0.771795,1.40554 1.677391,3.59709 2.765625,5.68164 1.088233,2.08455 2.331983,4.1088 4.126953,5.20703 h 0.002 c 1.306802,0.79942 2.873825,0.91807 4.380859,0.90821 1.507034,-0.01 2.993105,-0.17579 4.058594,-0.17579 H 60.72075 c 0.823186,0 2.492058,0.20877 4.134766,0.28321 1.642707,0.0744 3.283295,0.14492 4.541015,-0.73047 0.539056,-0.37524 0.824392,-1.04632 0.830078,-1.59766 0.0057,-0.55134 -0.160046,-1.0196 -0.351562,-1.44922 -0.383033,-0.85922 -0.953698,-1.64605 -1.115234,-1.93554 -1.441044,-2.5814 -2.924335,-5.13073 -4.386719,-7.68164 v -0.002 c -0.235929,-0.41145 -0.524729,-1.06023 -0.890625,-1.71093 -0.365896,-0.6507 -0.805918,-1.33763 -1.546875,-1.80079 -1.220186,-0.76278 -2.743967,-0.73543 -4.248047,-0.67187 -1.50408,0.0636 -3.014552,0.25195 -3.845703,0.25195 h -19.3145 c -0.837485,0 -2.496251,-0.20738 -4.132813,-0.28125 z m -0.08984,1.96289 c 1.522878,0.0687 3.103205,0.28321 4.222657,0.28321 h 19.314453 c 1.090516,0 2.540949,-0.19327 3.929687,-0.25196 1.388739,-0.0587 2.690912,0.10291 3.123047,0.37305 0.242763,0.15175 0.575505,0.56352 0.876953,1.09961 0.301449,0.53609 0.574408,1.16292 0.896485,1.72461 1.466551,2.55818 2.947271,5.10107 4.376953,7.66211 h -0.002 c 0.303072,0.54315 0.781076,1.20058 1.039062,1.7793 0.128993,0.28935 0.180591,0.5394 0.179688,0.62695 -9.03e-4,0.0875 0.05382,-0.0234 0.01172,0.006 -0.349885,0.24352 -1.799076,0.45015 -3.328125,0.38086 -1.529048,-0.0693 -3.114486,-0.28516 -4.224609,-0.28516 H 41.671875 c -0.01682,0 -0.03779,0.002 -0.05469,0.002 0.853021,-0.0679 1.857006,-0.15234 2.435547,-0.15234 h 23.875 l -0.787109,-1.45117 -4.332031,-7.98242 -2.195313,-3.21094 -9.673828,-0.16992 H 27.230469 l 0.570312,1.36328 c 1.129872,2.69959 2.770656,5.10475 4.072266,7.49805 0.541555,0.99585 1.132776,2.71793 2.734375,3.5664 0.520126,0.2755 1.122419,0.3703 1.71875,0.47656 -0.751169,-0.0898 -1.608278,-0.10331 -2.06836,-0.38476 -1.174155,-0.7184 -2.380781,-2.46196 -3.412109,-4.4375 -1.031328,-1.97555 -1.915663,-4.13529 -2.785156,-5.71875 -0.305993,-0.55725 -0.766332,-1.21151 -0.994141,-1.76367 -0.113904,-0.27608 -0.149965,-0.5038 -0.144531,-0.58203 0.0054,-0.0782 -0.04446,-0.008 0.04102,-0.0664 0.377089,-0.25637 1.818919,-0.45351 3.341796,-0.38477 z m 0.05078,2.39844 H 50.92383 l 8.640625,0.15039 1.566406,2.29102 3.496094,6.4414 H 44.052734 c -1.314821,0 -3.007194,0.21815 -4.632812,0.28907 -1.625618,0.0709 -3.166452,-0.0607 -3.892578,-0.44532 -0.678791,-0.3596 -1.295493,-1.60691 -1.927735,-2.76953 -1.111309,-2.04339 -2.259153,-3.98351 -3.24414,-5.95703 z m 49.90625,6.13477 c -0.338271,0.74278 -0.662161,1.4642 -1.050782,2.23828 -0.602976,1.20105 -1.347361,2.21317 -1.818359,2.4707 -0.124216,0.0679 -0.106043,0.0442 -0.111328,0.043 -0.0053,-0.001 -0.07176,-0.0231 -0.179688,-0.12695 -0.215592,-0.20743 -0.501613,-0.68603 -0.753906,-1.1211 v -0.002 c -0.454505,-0.78408 -0.903502,-1.56812 -1.357422,-2.35156 0.55119,0.74493 1.066516,1.53646 1.681641,2.19336 l 0.71875,-0.66993 0.847656,0.49415 c 0.457053,-0.7823 1.284917,-2.04229 2.023438,-3.16797 z M 37.25,147.75586 c 0.486495,0.035 0.987138,0.0264 1.488281,0.0156 -0.389042,0.0201 -0.757225,0.0463 -1.138672,0.0488 -0.142679,9.4e-4 -0.21015,-0.0613 -0.349609,-0.0644 z"
         id="path7673" /></g></g></svg>
