<?xml version="1.0" encoding="UTF-8" standalone="no"?>
<!-- Created with Inkscape (http://www.inkscape.org/) -->

<svg
   width="41.385662mm"
   height="41.37825mm"
   viewBox="0 0 41.385662 41.37825"
   version="1.1"
   id="svg5"
   xml:space="preserve"
   inkscape:version="1.2.2 (b0a8486541, 2022-12-01, custom)"
   sodipodi:docname="behance.svg"
   xmlns:inkscape="http://www.inkscape.org/namespaces/inkscape"
   xmlns:sodipodi="http://sodipodi.sourceforge.net/DTD/sodipodi-0.dtd"
   xmlns="http://www.w3.org/2000/svg"
   xmlns:svg="http://www.w3.org/2000/svg"><sodipodi:namedview
     id="namedview7"
     pagecolor="#ffffff"
     bordercolor="#666666"
     borderopacity="1.0"
     inkscape:showpageshadow="2"
     inkscape:pageopacity="0.0"
     inkscape:pagecheckerboard="0"
     inkscape:deskcolor="#d1d1d1"
     inkscape:document-units="mm"
     showgrid="false"
     inkscape:zoom="2.3987666"
     inkscape:cx="74.204802"
     inkscape:cy="93.172883"
     inkscape:window-width="1366"
     inkscape:window-height="704"
     inkscape:window-x="0"
     inkscape:window-y="0"
     inkscape:window-maximized="1"
     inkscape:current-layer="path8436"
     showguides="true"
     inkscape:lockguides="true" /><defs
     id="defs2" /><g
     inkscape:label="Layer 1"
     inkscape:groupmode="layer"
     id="layer1"
     transform="translate(-62.397726,-109.73365)"><g
       id="path8436"
       style="fill:#000000"><path
         id="path8440"
         style="color:#000000;fill:#f2f2f2;stroke-width:0.16132;-inkscape-stroke:none"
         d="M 70.805998 122.48016 L 70.805998 137.82806 L 77.71152 137.82806 C 78.736104 137.82806 79.620196 137.68761 80.364071 137.4069 C 81.107946 137.12619 81.662615 136.75437 82.027536 136.2912 C 82.406491 135.82804 82.68025 135.35764 82.848674 134.88044 C 83.017099 134.40324 83.100855 133.9119 83.100855 133.40662 C 83.100855 131.91888 82.252005 130.67675 80.553724 129.68024 C 81.311634 129.20303 81.851999 128.726 82.174813 128.2488 C 82.497627 127.75756 82.659022 127.18196 82.659022 126.52229 C 82.659022 126.11526 82.5819 125.70156 82.427511 125.2805 C 82.273122 124.85945 82.020303 124.43093 81.669418 123.99583 C 81.332569 123.5467 80.813143 123.18203 80.111373 122.90132 C 79.423639 122.62062 78.602881 122.48016 77.648475 122.48016 L 70.805998 122.48016 z M 93.857304 123.02535 L 86.984339 123.02586 L 86.984339 123.10699 L 86.983822 123.10699 L 86.983822 123.10751 L 86.902173 123.10751 L 86.902173 124.79733 L 93.857304 124.79733 L 93.857304 123.02535 z M 73.963945 125.11204 L 77.395777 125.11204 C 78.883528 125.11204 79.627165 125.69428 79.627165 126.85922 C 79.627165 128.01012 78.883528 128.58573 77.395777 128.58573 L 73.963945 128.58573 L 73.963945 125.11204 z M 90.048751 126.26959 C 88.420646 126.26959 87.136128 126.82426 86.195757 127.93306 C 85.255386 129.02781 84.785507 130.5294 84.785507 132.43821 C 84.785507 134.26281 85.248234 135.70157 86.174569 136.75422 C 87.100905 137.79284 88.37112 138.31227 89.985189 138.31227 C 91.262409 138.31227 92.378382 137.98233 93.332789 137.32266 C 94.287195 136.64896 94.926137 135.75057 95.248951 134.62774 L 92.343185 134.62774 C 91.964229 135.58215 91.21344 136.05969 90.090609 136.05969 C 89.613406 136.05969 89.213496 135.98206 88.890683 135.82766 C 88.581904 135.65924 88.343388 135.42787 88.174964 135.13313 C 88.020575 134.82435 87.908211 134.51535 87.838034 134.20657 C 87.78189 133.88376 87.746647 133.50479 87.732614 133.06969 L 95.353854 133.06969 C 95.367887 132.90127 95.375041 132.73324 95.375041 132.56481 C 95.375041 131.59638 95.262677 130.73986 95.038111 129.99598 C 94.813545 129.23807 94.518847 128.63489 94.153927 128.18575 C 93.803043 127.72258 93.382194 127.34361 92.890955 127.04887 C 92.413752 126.75413 91.943357 126.55034 91.480189 126.43806 C 91.017021 126.32577 90.53999 126.26959 90.048751 126.26959 z M 90.006377 128.52268 C 90.694111 128.52268 91.227323 128.7469 91.606279 129.19603 C 91.99927 129.64516 92.23115 130.2841 92.301327 131.11219 L 87.774988 131.11219 C 87.971484 129.38584 88.715121 128.52268 90.006377 128.52268 z M 73.963945 131.21709 L 77.732707 131.21709 C 79.290635 131.21709 80.069516 131.88412 80.069516 133.21749 C 80.069516 134.53681 79.290635 135.19618 77.732707 135.19618 L 73.963945 135.19618 L 73.963945 131.21709 z " /><path
         d="m 73.035583,109.94995 c -1.356715,0.19436 -2.612986,0.55073 -3.850839,1.1458 -8.399233,4.03758 -6.631998,14.20229 -6.631998,21.86762 0,4.47895 -0.54928,9.20757 2.244182,13.05006 4.515322,6.21076 12.426656,4.92052 19.149363,4.92052 3.000659,0 6.227661,0.33417 9.199225,-0.0916 1.356778,-0.19446 2.613008,-0.55066 3.850838,-1.14583 8.399316,-4.0376 6.631996,-14.20232 6.631996,-21.86763 0,-4.47898 0.54917,-9.20765 -2.24418,-13.05007 -4.515322,-6.21086 -12.426655,-4.92051 -19.149362,-4.92051 -3.000659,0 -6.22764,-0.3341 -9.199225,0.0916 m 0.427871,3.39327 c 2.154779,-0.28072 4.46034,-0.0619 6.632,-0.0619 5.542425,0 14.417323,-1.7862 18.285277,3.20921 2.269849,2.93147 1.824649,6.57973 1.824649,10.0548 0,6.99633 2.36549,19.35388 -7.2738,20.87175 -2.13914,0.33674 -4.469325,0.0939 -6.631999,0.0939 -5.638697,0 -14.865198,1.86381 -18.65761,-3.42296 -2.094835,-2.92044 -1.666258,-6.44737 -1.666258,-9.84103 0,-7.022 -2.367046,-19.61998 7.487741,-20.90376"
         style="fill:#f2f2f2;stroke:none;stroke-width:0.213935"
         id="path506"
         sodipodi:nodetypes="ccscsccscsccscscscsc" /><g
         aria-label="Be"
         id="text629"
         style="font-size:21.0531px;line-height:1.25;font-family:Courier;-inkscape-font-specification:Courier;stroke-width:0.526327;fill:#f2f2f2" /></g></g></svg>
