<?xml version="1.0" encoding="UTF-8" standalone="no"?>
<!-- Created with Inkscape (http://www.inkscape.org/) -->

<svg
   width="41.385662mm"
   height="41.37825mm"
   viewBox="0 0 41.385662 41.37825"
   version="1.1"
   id="svg5"
   xml:space="preserve"
   inkscape:version="1.2.2 (b0a8486541, 2022-12-01, custom)"
   sodipodi:docname="behance.svg"
   xmlns:inkscape="http://www.inkscape.org/namespaces/inkscape"
   xmlns:sodipodi="http://sodipodi.sourceforge.net/DTD/sodipodi-0.dtd"
   xmlns="http://www.w3.org/2000/svg"
   xmlns:svg="http://www.w3.org/2000/svg"><sodipodi:namedview
     id="namedview7"
     pagecolor="#ffffff"
     bordercolor="#666666"
     borderopacity="1.0"
     inkscape:showpageshadow="2"
     inkscape:pageopacity="0.0"
     inkscape:pagecheckerboard="0"
     inkscape:deskcolor="#d1d1d1"
     inkscape:document-units="mm"
     showgrid="false"
     inkscape:zoom="1.1993833"
     inkscape:cx="164.25108"
     inkscape:cy="13.340189"
     inkscape:window-width="1366"
     inkscape:window-height="731"
     inkscape:window-x="0"
     inkscape:window-y="0"
     inkscape:window-maximized="1"
     inkscape:current-layer="layer1"
     showguides="true" /><defs
     id="defs2" /><g
     inkscape:label="Layer 1"
     inkscape:groupmode="layer"
     id="layer1"
     transform="translate(-62.397726,-109.73365)"><g
       id="path8436"><path
         style="color:#000000;fill:#f2f2f2;stroke-width:0.16132;-inkscape-stroke:none"
         d="m 71.778282,109.91545 c -1.174897,0.16731 -2.307842,0.42295 -3.396951,0.90273 -5.858138,2.58052 -5.985108,8.36646 -5.985108,13.82956 v 9.81384 c 0,4.30361 -0.576851,8.86704 2.128592,12.54884 2.914069,3.96574 7.490099,4.02206 11.94449,4.02206 h 10.514377 c 2.653017,0 5.467958,0.26529 8.087974,-0.17392 3.939817,-0.66042 7.197514,-3.34828 8.290844,-7.22667 0.63247,-2.24416 0.44419,-4.61396 0.44419,-6.91796 v -10.94001 c 0,-4.20786 0.46344,-8.50676 -2.24845,-12.0662 -2.882737,-3.78373 -7.340993,-3.86118 -11.662886,-3.86118 H 79.704498 c -2.581683,0 -5.370064,-0.29514 -7.926216,0.069 m -0.161764,2.71265 c 2.200545,-0.28511 4.575046,-0.0466 6.793902,-0.0466 h 13.102528 c 3.189896,0 6.106422,0.25569 8.153488,3.0574 1.897454,2.59682 1.390334,5.98692 1.390334,9.00879 v 11.90531 c 0,2.02503 0.29327,4.30473 -0.24085,6.27442 -0.76303,2.81336 -3.180373,4.94715 -6.067779,5.39938 -2.230503,0.34927 -4.698794,0.0706 -6.955665,0.0706 H 74.204675 c -3.024502,0 -5.752999,-0.43614 -7.668228,-3.0574 -1.897377,-2.59681 -1.390309,-5.98692 -1.390309,-9.00879 V 124.326 c 0,-2.02499 -0.29332,-4.30472 0.240894,-6.27442 0.775131,-2.85807 3.276711,-5.04088 6.229486,-5.42346 m -1.294072,26.33819 c 3.138535,0 7.945627,0.8826 10.669821,-0.98267 2.654149,-1.81733 2.36945,-6.91489 -1.126011,-7.54411 0.63361,-0.71061 1.387576,-1.19084 1.794721,-2.09147 2.11727,-4.68427 -3.760908,-5.79178 -6.971023,-5.79178 -0.945602,0 -3.349961,-0.43188 -4.108144,0.16536 -0.688384,0.5422 -0.259364,3.19742 -0.259364,4.0176 v 12.22707 m 16.661236,-14.8012 v 1.60883 h 6.793902 v -1.60883 h -6.793902 m -14.396606,5.30913 v -4.98735 c 1.737899,0 4.604324,-0.40158 6.144437,0.49712 1.393238,0.81294 1.550631,3.11066 0.157069,4.00678 -1.592521,1.02385 -4.484043,0.48345 -6.301506,0.48345 m 23.131623,5.95266 c -0.54303,-0.10039 -1.370752,-0.35347 -1.898576,-0.11053 -0.679066,0.31259 -1.00485,1.33002 -1.660782,1.76713 -1.768193,1.17831 -4.121637,-0.0106 -4.832892,-1.81749 -0.224198,-0.56952 -0.316239,-1.16334 -0.342767,-1.7697 h 8.896774 c -0.0055,-1.99334 -0.441768,-4.23894 -2.1053,-5.54579 -3.573595,-2.8074 -8.445148,-0.093 -8.866691,4.09785 -0.207054,2.05768 0.09803,4.46802 1.758163,5.89972 2.92785,2.52505 8.123893,1.36524 9.052071,-2.52119 m -2.102879,-3.53942 h -6.47038 c 0.09334,-4.35525 6.376399,-4.38549 6.47038,0 m -21.028744,5.14824 v -5.63089 c 1.942233,0 4.882872,-0.50565 6.631495,0.49712 1.695887,0.97238 1.763505,3.75469 -0.0061,4.70196 -1.783239,0.95451 -4.661005,0.43181 -6.62567,0.43181 z"
         id="path8440" /><path
         style="color:#000000;fill:#f2f2f2;-inkscape-stroke:none"
         d="m 75.734375,109.66406 c -1.341169,-0.0283 -2.681656,-0.0112 -3.966797,0.17188 -1.179084,0.1679 -2.319648,0.42436 -3.417969,0.9082 -2.949222,1.29914 -4.465343,3.41671 -5.234375,5.88477 -0.769031,2.46805 -0.798828,5.28736 -0.798828,8.01953 v 9.8125 c 0,4.2964 -0.584933,8.88582 2.142578,12.59765 1.468855,1.99896 3.363399,3.01435 5.441407,3.52735 2.078007,0.51299 4.340826,0.52734 6.568359,0.52734 h 10.515625 c 2.647637,0 5.467035,0.26586 8.101562,-0.17578 3.967856,-0.66512 7.251473,-3.37391 8.353513,-7.2832 0.63763,-2.26245 0.44727,-4.63985 0.44727,-6.93946 v -10.9414 c 0,-4.20194 0.46987,-8.52737 -2.26367,-12.11524 -1.45336,-1.90759 -3.310108,-2.88349 -5.337894,-3.3789 -2.027785,-0.49542 -4.229199,-0.51367 -6.390625,-0.51367 H 79.705078 c -1.287766,0 -2.629534,-0.0733 -3.970703,-0.10157 z m -0.0039,0.16211 c 1.337477,0.0282 2.680695,0.10156 3.974609,0.10156 h 10.189453 c 2.160463,0 4.35102,0.0205 6.353516,0.50977 2.002496,0.48924 3.816713,1.44223 5.246093,3.31836 2.69023,3.53101 2.23242,7.8038 2.23242,12.01758 v 10.9414 c 0,2.3084 0.18591,4.66867 -0.4414,6.89453 -1.08462,3.84749 -4.314795,6.51421 -8.226566,7.16993 -2.6055,0.43677 -5.415828,0.17187 -8.074219,0.17187 H 76.46875 c -2.226853,0 -4.477179,-0.0149 -6.529297,-0.52148 -2.052118,-0.5066 -3.904398,-1.50002 -5.349609,-3.4668 -2.683369,-3.65176 -2.113282,-8.19114 -2.113282,-12.50195 v -9.8125 c 0,-2.73092 0.03398,-5.53684 0.792969,-7.97266 0.758987,-2.43582 2.235621,-4.50182 5.144531,-5.7832 1.079896,-0.47572 2.204293,-0.72977 3.375,-0.89649 1.271009,-0.18106 2.603929,-0.19814 3.941407,-0.16992 z M 78.410156,112.5 c -2.213073,0 -4.591127,-0.23797 -6.804687,0.0488 -2.985786,0.38686 -5.512985,2.59205 -6.296875,5.48242 -0.540282,1.99207 -0.242188,4.27772 -0.242188,6.29492 v 11.9043 c 0,3.01284 -0.516845,6.4273 1.404297,9.05664 1.934241,2.64728 4.702122,3.0918 7.734375,3.0918 h 13.587891 c 2.250229,0 4.720832,0.27942 6.966797,-0.0723 2.918923,-0.45717 5.363164,-2.61403 6.134764,-5.45898 0.54019,-1.99206 0.24219,-4.27769 0.24219,-6.29493 v -11.90429 c 0,-3.01285 0.51692,-6.4273 -1.404298,-9.05664 -1.033608,-1.41465 -2.294229,-2.19122 -3.691406,-2.60938 C 94.643838,112.56427 93.110773,112.5 91.513672,112.5 Z m 0,0.16211 h 13.103516 c 1.592791,0 3.112098,0.0645 4.482422,0.47461 1.370323,0.41012 2.592012,1.16372 3.605468,2.55078 1.873688,2.56429 1.374998,5.93005 1.374998,8.96094 v 11.90429 c 0,2.03282 0.28977,4.30659 -0.23828,6.25391 -0.754459,2.78176 -3.146069,4.89255 -6.001952,5.33984 -2.215037,0.34685 -4.679851,0.0703 -6.943359,0.0703 H 74.205078 c -3.016745,0 -5.707303,-0.42821 -7.603516,-3.02344 -1.873608,-2.56428 -1.374999,-5.932 -1.375,-8.96289 v -11.9043 c 0,-2.03278 -0.289864,-4.30658 0.238282,-6.2539 0.76637,-2.82577 3.242351,-4.98498 6.162109,-5.36329 2.187526,-0.28342 4.558569,-0.0469 6.783203,-0.0469 z m -5.841797,9.67187 c -0.818918,-0.0335 -1.618036,-0.006 -2.037109,0.32422 -0.200434,0.15787 -0.301323,0.44426 -0.359375,0.79102 -0.05805,0.34676 -0.06927,0.75989 -0.05859,1.17969 0.02135,0.83958 0.128906,1.71335 0.128906,2.10937 v 12.22852 h 0.08008 v 0.0801 c 1.561705,0 3.549132,0.22154 5.490234,0.20899 1.941102,-0.0126 3.839372,-0.2566 5.224609,-1.20508 1.357191,-0.92928 1.958563,-2.68653 1.779297,-4.29297 -0.174623,-1.56484 -1.130646,-2.96573 -2.828125,-3.33594 0.611815,-0.66287 1.342347,-1.1479 1.746094,-2.04101 0.535578,-1.18492 0.570464,-2.1578 0.257812,-2.94336 -0.312651,-0.78556 -0.967379,-1.3755 -1.78125,-1.8125 -1.627741,-0.874 -3.907152,-1.14844 -5.521484,-1.14844 -0.460521,0 -1.302176,-0.10906 -2.121094,-0.14258 z m -0.0059,0.16211 c 0.809206,0.0331 1.641873,0.14063 2.126953,0.14063 1.59578,0 3.860757,0.28004 5.445313,1.13086 0.792278,0.42541 1.41269,0.98896 1.707031,1.72851 0.29434,0.73955 0.26915,1.66115 -0.253906,2.81836 -0.396181,0.87638 -1.138501,1.35141 -1.78125,2.07227 l -0.0957,0.10742 0.140625,0.0254 c 1.710727,0.30795 2.629323,1.70188 2.802735,3.25586 0.173411,1.55398 -0.410075,3.25454 -1.707031,4.14258 -1.338954,0.91679 -3.206643,1.16331 -5.134766,1.17578 -1.899988,0.0123 -3.844703,-0.19883 -5.410156,-0.20508 v -12.15039 c 0,-0.42415 -0.105886,-1.28466 -0.126953,-2.11328 -0.01053,-0.41431 -4.28e-4,-0.81922 0.05469,-1.14844 0.05512,-0.32922 0.157024,-0.57817 0.300781,-0.6914 0.339109,-0.26713 1.122435,-0.32218 1.931641,-0.28907 z m 14.421875,1.58789 v 0.082 h -0.08203 v 1.68945 h 6.955078 v -1.77149 z m 0.08008,0.16211 h 6.632813 v 1.44727 h -6.632813 z m -11.330078,0.0723 c -1.131731,-0.012 -2.283748,0.0879 -3.146484,0.0879 h -0.08203 v 5.06836 h 0.08203 v 0.0801 c 0.900736,0 2.079267,0.13542 3.234375,0.14258 1.155107,0.007 2.289006,-0.11125 3.109375,-0.63868 1.448643,-0.93154 1.287938,-3.29958 -0.160157,-4.14453 -0.793386,-0.46296 -1.905378,-0.5837 -3.037109,-0.5957 z m -0.002,0.16016 c 1.120982,0.0119 2.21226,0.13848 2.958984,0.57421 1.338379,0.78093 1.492775,3.0104 0.154297,3.8711 -0.77215,0.49642 -1.88029,0.61841 -3.023437,0.61133 -1.114838,-0.007 -2.247938,-0.13035 -3.154297,-0.13672 v -4.83203 c 0.866295,-0.005 1.972014,-0.0995 3.064453,-0.0879 z m 15.216797,2.25976 c -0.981243,-0.0762 -1.955484,0.13271 -2.826172,0.56445 -1.741376,0.86348 -3.081228,2.6138 -3.294922,4.73829 -0.208472,2.07177 0.09482,4.511 1.785156,5.96875 2.97284,2.56385 8.24046,1.3846 9.183594,-2.56446 l -0.07813,-0.0195 0.01367,-0.0781 c -0.266804,-0.0493 -0.611641,-0.13923 -0.958985,-0.18555 -0.347343,-0.0463 -0.698205,-0.0525 -0.986328,0.0801 -0.365276,0.16814 -0.621941,0.51404 -0.871093,0.86328 -0.249153,0.34923 -0.49172,0.7042 -0.800782,0.91015 -0.859935,0.57306 -1.860125,0.57246 -2.738281,0.20508 -0.878156,-0.36737 -1.62788,-1.10353 -1.974609,-1.98437 -0.209378,-0.53187 -0.291189,-1.09001 -0.322266,-1.66016 h 8.880859 v -0.0801 c -0.0055,-2.00494 -0.443278,-4.27903 -2.136718,-5.60937 -0.905364,-0.71125 -1.893758,-1.07225 -2.875,-1.14844 z m -0.01563,0.1582 c 0.950418,0.0735 1.909583,0.42474 2.791015,1.11719 1.611818,1.26623 2.045648,3.44105 2.0625,5.40235 h -8.886718 l 0.002,0.084 c 0.02678,0.6122 0.121167,1.21462 0.349609,1.79492 0.364525,0.92605 1.144074,1.69 2.0625,2.07422 0.918426,0.38422 1.980417,0.3865 2.888672,-0.21875 0.34687,-0.23115 0.596262,-0.60427 0.84375,-0.95117 0.247488,-0.3469 0.492852,-0.6661 0.806641,-0.81055 0.239701,-0.11032 0.566159,-0.11098 0.90039,-0.0664 0.29636,0.0395 0.584752,0.11037 0.841797,0.1621 -0.97323,3.74948 -6.017509,4.8684 -8.876953,2.40235 -1.629926,-1.40565 -1.936104,-3.7865 -1.730469,-5.83008 0.207849,-2.06636 1.513849,-3.76979 3.207031,-4.60937 0.846592,-0.4198 1.787863,-0.62427 2.738282,-0.55079 z m -0.552735,1.63282 c -0.815516,0.002 -1.632112,0.2823 -2.251953,0.84375 -0.61984,0.56145 -1.040703,1.40548 -1.064453,2.51367 l -0.002,0.082 h 6.552734 v -0.0801 l 0.08203,-0.002 c -0.02391,-1.11562 -0.444405,-1.96089 -1.064454,-2.52149 -0.620048,-0.56059 -1.436437,-0.83787 -2.251953,-0.83593 z m 0,0.16015 c 0.778663,-0.002 1.555206,0.26387 2.142578,0.79492 0.570221,0.51555 0.950491,1.29251 0.994141,2.32227 h -6.273437 c 0.0436,-1.02238 0.422012,-1.79603 0.992187,-2.3125 0.587421,-0.53208 1.365869,-0.80284 2.144531,-0.80469 z m -14.40625,2.50782 c -1.202147,0.001 -2.422603,0.12695 -3.386718,0.12695 h -0.08203 v 5.71094 l 0.08008,-0.0781 v 0.16016 c 0.975179,0 2.187541,0.12921 3.38086,0.14062 1.193319,0.0114 2.370268,-0.0934 3.283203,-0.58203 1.828294,-0.97869 1.760493,-3.8388 0.0078,-4.84375 -0.896312,-0.514 -2.081055,-0.63584 -3.283203,-0.63476 z m 0,0.16015 c 1.190884,-0.001 2.350817,0.12647 3.203125,0.61524 1.639091,0.93981 1.707006,3.64469 -0.0039,4.56054 -0.870302,0.46585 -2.02254,0.57577 -3.205078,0.56446 -1.153856,-0.011 -2.325019,-0.13263 -3.300781,-0.13868 v -5.47656 c 0.965977,-0.006 2.143927,-0.12396 3.30664,-0.125 z"
         id="path8442" /></g></g></svg>
