<?xml version="1.0" encoding="UTF-8" standalone="no"?>
<!-- Created with Inkscape (http://www.inkscape.org/) -->

<svg
   width="41.385662mm"
   height="41.37825mm"
   viewBox="0 0 41.385662 41.37825"
   version="1.1"
   id="svg5"
   xml:space="preserve"
   inkscape:version="1.2.2 (b0a8486541, 2022-12-01, custom)"
   sodipodi:docname="email.svg"
   xmlns:inkscape="http://www.inkscape.org/namespaces/inkscape"
   xmlns:sodipodi="http://sodipodi.sourceforge.net/DTD/sodipodi-0.dtd"
   xmlns="http://www.w3.org/2000/svg"
   xmlns:svg="http://www.w3.org/2000/svg"><sodipodi:namedview
     id="namedview7"
     pagecolor="#ffffff"
     bordercolor="#666666"
     borderopacity="1.0"
     inkscape:showpageshadow="2"
     inkscape:pageopacity="0.0"
     inkscape:pagecheckerboard="0"
     inkscape:deskcolor="#d1d1d1"
     inkscape:document-units="mm"
     showgrid="false"
     inkscape:zoom="1.1993833"
     inkscape:cx="147.57584"
     inkscape:cy="60.030851"
     inkscape:window-width="1366"
     inkscape:window-height="731"
     inkscape:window-x="0"
     inkscape:window-y="0"
     inkscape:window-maximized="1"
     inkscape:current-layer="layer1"
     showguides="true" /><defs
     id="defs2" /><g
     inkscape:label="Layer 1"
     inkscape:groupmode="layer"
     id="layer1"
     transform="translate(-62.397726,-109.73365)"><path
       style="fill:#f2f2f2;stroke:none;stroke-width:0.214027"
       d="m 65.122034,113.41696 c -3.153119,0.82753 -2.568332,4.45818 -2.568332,6.94351 v 18.62042 c 0,2.09618 -0.658885,5.52854 0.73176,7.26752 1.814909,2.26955 6.732672,1.29358 9.327537,1.29358 h 19.690553 c 2.717729,0 6.38873,0.64358 8.989168,-0.17207 3.02207,-0.94793 2.35431,-4.65597 2.35431,-7.10487 v -18.62041 c 0,-2.15406 0.66134,-5.52891 -0.92888,-7.23664 -1.92068,-2.06241 -6.766275,-1.11044 -9.344452,-1.11044 H 74.325224 c -2.837025,0 -6.456748,-0.6014 -9.20319,0.1194 m 30.605963,3.30504 v 0.21403 l -8.775135,5.47406 -3.852499,1.97068 -3.852499,-1.97068 -8.775139,-5.47406 7.704998,-0.21403 h 17.550274 m -29.535821,1.4982 c 3.905677,2.07917 7.582292,4.69088 11.343464,7.0218 1.723355,1.06803 3.626056,2.70404 5.778748,2.58633 1.991311,-0.10894 3.724511,-1.57848 5.35069,-2.58633 3.675499,-2.27788 7.513449,-5.4912 11.557502,-7.0218 v 25.89735 h -3.424442 v -13.69777 c 0,-1.35116 0.359996,-4.15548 -1.712434,-4.18362 -0.971469,-0.0132 -2.000727,0.90043 -2.782152,1.39055 l -6.206806,3.8739 c -0.923743,0.57938 -2.046747,1.55684 -3.210416,1.42992 -1.00165,-0.10915 -1.943795,-0.93551 -2.782358,-1.44062 -2.086772,-1.25719 -4.142975,-2.56876 -6.206806,-3.8632 -1.061357,-0.66571 -2.585733,-2.04052 -3.803608,-0.96646 -1.133132,0.99921 -0.690966,3.2617 -0.690966,4.61564 v 12.84166 h -3.424449 v -17.97833 c 0,-2.27597 -0.66513,-5.82386 0.214033,-7.91902 m 6.848881,12.84166 c 2.93539,1.56262 6.978803,5.69421 10.487356,5.31046 3.646822,-0.39896 6.482472,-4.07916 9.845285,-5.31046 v 13.05569 H 72.827032 v -8.77514 z"
       id="path6803" /></g></svg>
