<?xml version="1.0" encoding="UTF-8" standalone="no"?>
<!-- Created with Inkscape (http://www.inkscape.org/) -->

<svg
   width="41.385662mm"
   height="41.37825mm"
   viewBox="0 0 41.385662 41.37825"
   version="1.1"
   id="svg5"
   xml:space="preserve"
   inkscape:version="1.2.2 (b0a8486541, 2022-12-01, custom)"
   sodipodi:docname="facebook.svg"
   xmlns:inkscape="http://www.inkscape.org/namespaces/inkscape"
   xmlns:sodipodi="http://sodipodi.sourceforge.net/DTD/sodipodi-0.dtd"
   xmlns="http://www.w3.org/2000/svg"
   xmlns:svg="http://www.w3.org/2000/svg"><sodipodi:namedview
     id="namedview7"
     pagecolor="#ffffff"
     bordercolor="#666666"
     borderopacity="1.0"
     inkscape:showpageshadow="2"
     inkscape:pageopacity="0.0"
     inkscape:pagecheckerboard="0"
     inkscape:deskcolor="#d1d1d1"
     inkscape:document-units="mm"
     showgrid="false"
     inkscape:zoom="1.6961841"
     inkscape:cx="31.246608"
     inkscape:cy="70.747036"
     inkscape:window-width="1366"
     inkscape:window-height="731"
     inkscape:window-x="0"
     inkscape:window-y="0"
     inkscape:window-maximized="1"
     inkscape:current-layer="layer1"
     showguides="true" /><defs
     id="defs2" /><g
     inkscape:label="Layer 1"
     inkscape:groupmode="layer"
     id="layer1"
     transform="translate(-62.397726,-109.73365)"><path
       style="fill:#f2f2f2;stroke:none;stroke-width:0.215338"
       d="m 72.896286,109.95134 c -1.365611,0.19563 -2.630121,0.55435 -3.87609,1.15331 -8.45431,4.06406 -6.675487,14.29543 -6.675487,22.01101 0,4.50833 -0.55288,9.26794 2.258899,13.13564 4.54493,6.25148 12.50814,4.95278 19.27493,4.95278 3.020335,0 6.268498,0.33636 9.259547,-0.0922 1.365676,-0.19575 2.630142,-0.55429 3.876089,-1.15336 8.454396,-4.06407 6.675486,-14.29544 6.675486,-22.01102 0,-4.50834 0.55277,-9.26802 -2.2589,-13.13563 -4.544927,-6.2516 -12.508137,-4.95277 -19.274928,-4.95277 -3.020334,0 -6.268476,-0.3363 -9.259546,0.0922 m 15.289018,37.80733 v -5.16812 c 1.621499,0 4.349189,0.5222 5.804659,-0.25388 0.950073,-0.50648 1.149476,-1.60471 1.443414,-2.54551 0.635032,-2.03194 2.240378,-5.14702 0.276924,-6.83075 -1.674255,-1.43588 -5.444398,-0.7061 -7.524997,-0.7061 v -3.44541 c 2.030425,0 5.717447,0.71147 7.527366,-0.25389 1.911558,-1.01962 1.095642,-5.45134 1.085951,-7.28295 -0.0043,-0.83825 -0.01787,-1.67389 -0.694897,-2.27535 -1.261451,-1.12054 -4.394193,-0.52404 -5.980374,-0.52404 -1.850618,0 -3.786939,-0.17493 -5.598796,0.26684 -6.663428,1.62471 -6.675488,8.0094 -6.675488,13.5148 -1.303443,0 -3.424138,-0.40764 -4.472921,0.52414 -1.444554,1.2832 -0.719251,5.44418 -0.694358,7.22804 0.01076,0.7722 0.07849,1.51297 0.694358,2.05992 1.048783,0.93178 3.169478,0.52414 4.472921,0.52414 v 5.16812 c -1.990372,0 -4.102065,0.21232 -6.029472,-0.38201 -7.933407,-2.44603 -6.029473,-12.39897 -6.029473,-18.7831 0,-4.06677 -0.800691,-8.90837 2.008827,-12.27344 2.517671,-3.01551 6.034748,-3.01558 9.619441,-3.01558 4.804413,0 9.624761,-0.11481 14.427667,0.003 8.620204,0.21174 8.398194,8.78347 8.398194,15.07052 0,6.41837 1.95376,16.53711 -6.029474,18.99843 -1.927493,0.59433 -4.0391,0.38201 -6.029472,0.38201 m 5.16812,-25.8406 v 3.44543 c -2.015351,0 -5.142709,-0.59059 -6.889964,0.58203 -2.162643,1.45139 -1.723784,4.04795 -1.723568,6.30878 0,1.09801 -0.140616,2.35687 0.884825,3.0703 1.61999,1.12708 5.586522,0.37511 7.513368,0.37511 -0.280585,0.86287 -0.481281,2.66115 -1.228074,3.22404 -1.671887,1.26017 -4.771251,-0.7681 -6.475007,0.74551 -1.557111,1.38311 -0.695112,6.14962 -0.695112,8.0894 h -3.445413 c 0,-1.95419 0.902483,-6.99506 -0.884824,-8.23841 -1.071524,-0.7455 -3.037563,-0.37512 -4.283296,-0.37512 v -3.44542 c 1.204388,0 2.990834,0.32796 4.081954,-0.25388 1.27954,-0.68241 1.086166,-2.1803 1.086166,-3.40687 0,-2.49512 -0.6079,-5.84316 0.981512,-7.96667 2.407482,-3.21647 7.555145,-2.15423 11.077433,-2.15423 z"
       id="path6873" /></g></svg>
