<?xml version="1.0" encoding="UTF-8" standalone="no"?>
<!-- Created with Inkscape (http://www.inkscape.org/) -->

<svg
   width="41.385662mm"
   height="41.37825mm"
   viewBox="0 0 41.385662 41.37825"
   version="1.1"
   id="svg5"
   xml:space="preserve"
   inkscape:version="1.2.2 (b0a8486541, 2022-12-01, custom)"
   sodipodi:docname="instagram.svg"
   xmlns:inkscape="http://www.inkscape.org/namespaces/inkscape"
   xmlns:sodipodi="http://sodipodi.sourceforge.net/DTD/sodipodi-0.dtd"
   xmlns="http://www.w3.org/2000/svg"
   xmlns:svg="http://www.w3.org/2000/svg"><sodipodi:namedview
     id="namedview7"
     pagecolor="#ffffff"
     bordercolor="#666666"
     borderopacity="1.0"
     inkscape:showpageshadow="2"
     inkscape:pageopacity="0.0"
     inkscape:pagecheckerboard="0"
     inkscape:deskcolor="#d1d1d1"
     inkscape:document-units="mm"
     showgrid="false"
     inkscape:zoom="1.1993833"
     inkscape:cx="112.55785"
     inkscape:cy="115.89289"
     inkscape:window-width="1366"
     inkscape:window-height="731"
     inkscape:window-x="0"
     inkscape:window-y="0"
     inkscape:window-maximized="1"
     inkscape:current-layer="layer1"
     showguides="true" /><defs
     id="defs2" /><g
     inkscape:label="Layer 1"
     inkscape:groupmode="layer"
     id="layer1"
     transform="translate(-62.397726,-109.73365)"><path
       style="fill:#f2f2f2;stroke:none;stroke-width:0.213935"
       d="m 73.035582,110.0032 c -1.356715,0.19436 -2.612986,0.55073 -3.850839,1.1458 -8.399233,4.03758 -6.631998,14.20229 -6.631998,21.86762 0,4.47895 -0.54928,9.20757 2.244182,13.05006 4.515322,6.21076 12.426655,4.92052 19.149362,4.92052 3.000659,0 6.227661,0.33417 9.199225,-0.0916 1.356778,-0.19446 2.613008,-0.55066 3.850838,-1.14583 8.399318,-4.0376 6.631998,-14.20232 6.631998,-21.86763 0,-4.47898 0.54917,-9.20765 -2.24418,-13.05007 -4.515324,-6.21086 -12.426657,-4.92051 -19.149364,-4.92051 -3.000659,0 -6.22764,-0.3341 -9.199224,0.0916 m 0.427871,3.39327 c 2.154778,-0.28072 4.460339,-0.0619 6.631999,-0.0619 5.542425,0 14.417323,-1.7862 18.285276,3.20921 2.269852,2.93147 1.824652,6.57973 1.824652,10.0548 0,6.99633 2.36549,19.35388 -7.273802,20.87175 -2.13914,0.33674 -4.469325,0.0939 -6.631999,0.0939 -5.638697,0 -14.865197,1.86381 -18.657609,-3.42296 -2.094835,-2.92044 -1.666258,-6.44737 -1.666258,-9.84103 0,-7.022 -2.367046,-19.61998 7.487741,-20.90376 m 20.109931,3.48437 c -3.160468,0.86924 -1.834496,5.74545 1.283613,4.88782 3.160469,-0.86924 1.834497,-5.74545 -1.283613,-4.88782 m -11.980385,4.2546 c -1.449199,0.25616 -2.866948,0.81571 -4.064559,1.67665 -7.803446,5.6092 -2.485652,18.63851 7.059655,16.9512 1.449199,-0.25609 2.86695,-0.81574 4.06456,-1.67661 7.80351,-5.60918 2.485716,-18.63849 -7.059656,-16.95124 m 0.641807,3.38813 c 7.668516,-1.12721 9.392194,10.72268 1.711483,11.85162 -7.658889,1.12573 -9.408795,-10.7202 -1.711483,-11.85162 z"
       id="path6768" /></g></svg>
