<?xml version="1.0" encoding="UTF-8" standalone="no"?>
<!-- Created with Inkscape (http://www.inkscape.org/) -->

<svg
   width="41.385662mm"
   height="41.37825mm"
   viewBox="0 0 41.385662 41.37825"
   version="1.1"
   id="svg5"
   xml:space="preserve"
   inkscape:version="1.2.2 (732a01da63, 2022-12-09, custom)"
   sodipodi:docname="map"
   xmlns:inkscape="http://www.inkscape.org/namespaces/inkscape"
   xmlns:sodipodi="http://sodipodi.sourceforge.net/DTD/sodipodi-0.dtd"
   xmlns="http://www.w3.org/2000/svg"
   xmlns:svg="http://www.w3.org/2000/svg"><sodipodi:namedview
     id="namedview7"
     pagecolor="#ffffff"
     bordercolor="#666666"
     borderopacity="1.0"
     inkscape:showpageshadow="2"
     inkscape:pageopacity="0.0"
     inkscape:pagecheckerboard="0"
     inkscape:deskcolor="#d1d1d1"
     inkscape:document-units="mm"
     showgrid="false"
     inkscape:zoom="1.6961841"
     inkscape:cx="60.724539"
     inkscape:cy="78.411298"
     inkscape:window-width="1366"
     inkscape:window-height="731"
     inkscape:window-x="0"
     inkscape:window-y="0"
     inkscape:window-maximized="1"
     inkscape:current-layer="layer1"
     showguides="true"><sodipodi:guide
       position="19.342437,37.814338"
       orientation="0,1"
       id="guide336"
       inkscape:locked="false" /><sodipodi:guide
       position="20.06055,3.56991"
       orientation="0,-1"
       id="guide338"
       inkscape:locked="false" /><sodipodi:guide
       position="14.102844,9.7350505"
       orientation="1,0"
       id="guide455"
       inkscape:locked="false" /><sodipodi:guide
       position="27.609769,10.180772"
       orientation="1,0"
       id="guide457"
       inkscape:locked="false" /></sodipodi:namedview><defs
     id="defs2" /><g
     inkscape:label="Layer 1"
     inkscape:groupmode="layer"
     id="layer1"
     transform="translate(-62.397726,-109.73365)"><path
       id="path459"
       style="color:#000000;fill:#f2f2f2;stroke-linecap:square;stroke-linejoin:round;-inkscape-stroke:none;paint-order:fill markers stroke"
       d="M 64.121135 111.28291 A 1.7109311 1.7109311 0 0 0 63.259689 111.5077 A 1.7109311 1.7109311 0 0 0 62.394625 112.99392 L 62.394625 113.23059 L 62.394625 141.80249 A 1.7109311 1.7109311 0 0 0 63.404383 143.36519 L 76.343645 149.17207 A 1.7109311 1.7109311 0 0 0 77.851563 149.11936 L 77.978687 149.05115 L 77.980237 149.05063 L 79.715532 148.12097 L 89.445171 142.91044 L 101.27907 149.12504 A 1.7109311 1.7109311 0 0 0 103.78538 147.61144 L 103.78538 119.89065 A 1.7109311 1.7109311 0 0 0 102.87329 118.37912 L 90.844052 112.03842 A 1.7109311 1.7109311 0 0 0 90.408419 111.67203 A 1.7109311 1.7109311 0 0 0 88.685527 111.69322 L 88.608529 111.73921 A 1.7109311 1.7109311 0 0 0 88.556853 111.76195 L 77.03921 118.66592 L 64.978447 111.52165 A 1.7109311 1.7109311 0 0 0 64.121135 111.28291 z M 65.816639 115.99425 L 75.463078 121.70915 L 75.463078 145.02504 L 65.816639 140.69558 L 65.816639 115.99425 z M 91.27555 116.13223 L 100.36543 120.92366 L 100.36543 144.77906 L 91.27555 140.00674 L 91.27555 116.13223 z M 87.855604 116.17977 L 87.855604 139.8791 L 82.259046 142.87685 L 78.884575 144.68345 L 78.884575 121.55877 L 87.855604 116.17977 z " /></g></svg>
