<?xml version="1.0" encoding="UTF-8" standalone="no"?>
<!-- Created with Inkscape (http://www.inkscape.org/) -->

<svg
   width="41.385662mm"
   height="41.37825mm"
   viewBox="0 0 41.385662 41.37825"
   version="1.1"
   id="svg5"
   xml:space="preserve"
   inkscape:version="1.2.2 (b0a8486541, 2022-12-01, custom)"
   sodipodi:docname="whatsapp.svg"
   xmlns:inkscape="http://www.inkscape.org/namespaces/inkscape"
   xmlns:sodipodi="http://sodipodi.sourceforge.net/DTD/sodipodi-0.dtd"
   xmlns="http://www.w3.org/2000/svg"
   xmlns:svg="http://www.w3.org/2000/svg"><sodipodi:namedview
     id="namedview7"
     pagecolor="#ffffff"
     bordercolor="#666666"
     borderopacity="1.0"
     inkscape:showpageshadow="2"
     inkscape:pageopacity="0.0"
     inkscape:pagecheckerboard="0"
     inkscape:deskcolor="#d1d1d1"
     inkscape:document-units="mm"
     showgrid="false"
     inkscape:zoom="1.1993833"
     inkscape:cx="-3.3350473"
     inkscape:cy="82.54242"
     inkscape:window-width="1366"
     inkscape:window-height="731"
     inkscape:window-x="0"
     inkscape:window-y="0"
     inkscape:window-maximized="1"
     inkscape:current-layer="layer1"
     showguides="true" /><defs
     id="defs2" /><g
     inkscape:label="Layer 1"
     inkscape:groupmode="layer"
     id="layer1"
     transform="translate(-62.397726,-109.73365)"><path
       style="fill:#f2f2f2;stroke:none;stroke-width:0.215043"
       d="m 81.250596,109.86055 c -11.054514,1.46924 -19.472425,10.63634 -18.689518,22.05819 0.151499,2.21042 0.716245,4.39785 1.529862,6.4513 0.374325,0.94468 1.20121,1.96334 1.378857,2.94931 0.507868,2.81793 -4.874902,5.94359 -2.222945,8.84947 2.476847,2.71363 6.136152,-1.68766 8.695489,-2.04443 1.163557,-0.16235 3.207672,1.38446 4.362257,1.784 2.784385,0.9634 5.873913,1.43973 8.816777,1.08791 3.674018,-0.43955 7.06482,-1.61906 10.107037,-3.74949 14.133288,-9.89844 9.685758,-32.93672 -7.096428,-36.90674 -2.200968,-0.52067 -4.630102,-0.77873 -6.881388,-0.47952 m -14.192855,36.68113 c 0.646141,-1.55196 2.215979,-3.45209 2.248837,-5.16103 0.03427,-1.78293 -2.051234,-4.02369 -2.584671,-5.80617 -1.6062,-5.36727 -0.594658,-11.23947 2.809498,-15.69816 1.427006,-1.86908 3.226123,-3.37853 5.267893,-4.54328 1.839484,-1.04945 3.935076,-1.64539 6.021209,-1.93607 15.936213,-2.22055 26.034423,17.78955 14.586387,29.23737 -4.468386,4.46839 -11.144828,5.99713 -17.166907,4.30409 -1.86098,-0.52319 -4.182416,-2.68094 -6.021207,-2.64567 -1.708928,0.0329 -3.609093,1.60272 -5.161039,2.24892 m 9.891987,-26.98296 c -2.401492,0.40381 -4.86277,5.3902 -4.117344,7.62906 1.511604,4.54 6.614644,8.8843 10.353602,11.54976 1.534551,1.09415 3.134685,2.56117 5.161039,2.09926 1.736043,-0.39569 4.953092,-1.99733 5.583381,-3.75724 0.916088,-2.55837 -3.522192,-6.3427 -5.798422,-6.62633 -2.537727,-0.31612 -5.225556,3.67207 -6.879454,2.10225 -2.060116,-1.95517 1.483373,-3.41875 1.862705,-5.58274 0.443849,-2.53056 -1.272193,-4.1794 -2.939858,-5.803 -0.866192,-0.84336 -1.910438,-1.83216 -3.225649,-1.61102 m 0.64513,3.97333 c 1.782923,1.78301 2.991038,3.55015 0,4.94599 -1.123384,-2.01783 -1.690878,-2.99987 0,-4.94599 m 12.472515,12.68755 c -2.308918,1.07802 -2.715568,1.02662 -4.945998,-0.21503 1.364019,-2.92288 3.422631,-1.94766 4.945998,0.21503 z"
       id="path6838" /></g></svg>
