<?xml version="1.0" encoding="UTF-8" standalone="no"?>
<!-- Created with Inkscape (http://www.inkscape.org/) -->

<svg
   width="264.11655mm"
   height="66.846352mm"
   viewBox="0 0 264.11654 66.846352"
   version="1.1"
   id="svg8"
   xmlns="http://www.w3.org/2000/svg"
   xmlns:svg="http://www.w3.org/2000/svg"
   xmlns:rdf="http://www.w3.org/1999/02/22-rdf-syntax-ns#"
   xmlns:cc="http://creativecommons.org/ns#"
   xmlns:dc="http://purl.org/dc/elements/1.1/">
  <defs
     id="defs2" />
  <metadata
     id="metadata5">
    <rdf:RDF>
      <cc:Work
         rdf:about="">
        <dc:format>image/svg+xml</dc:format>
        <dc:type
           rdf:resource="http://purl.org/dc/dcmitype/StillImage" />
      </cc:Work>
    </rdf:RDF>
  </metadata>
  <g
     id="layer1"
     transform="translate(239.12214,56.206881)"
     style="display:inline">
    <g
       aria-label="designer e ilustradora"
       id="text1649"
       style="font-size:20.1486px;line-height:1;font-family:'charllie Personel Use';-inkscape-font-specification:'charllie Personel Use';letter-spacing:0px;word-spacing:0px;display:inline;fill:#e6e6e6;stroke-width:0.263261">
      <path
         d="M -199.40505,-8.3875801 V 6.4484005 h -1.35766 V 4.6086602 q -0.86576,1.0526856 -1.94797,1.5839475 -1.07236,0.5312619 -2.35132,0.5312619 -2.27262,0 -3.88608,-1.6429766 -1.60363,-1.6528148 -1.60363,-4.0139788 0,-2.3119731 1.6233,-3.9549498 1.6233,-1.6429766 3.90576,-1.6429766 1.31832,0 2.38084,0.5607765 1.07236,0.5607764 1.8791,1.6823293 v -6.0996737 z m -5.50938,5.1847227 q -1.15107,0 -2.12505,0.5706146 -0.97398,0.5607765 -1.55443,1.5839475 -0.57061,1.02317111 -0.57061,2.1644004 0,1.1313911 0.58045,2.1644003 0.58045,1.0330093 1.55443,1.6134621 0.98382,0.5706147 2.10537,0.5706147 1.13139,0 2.14473,-0.5706147 1.01333,-0.5706146 1.55443,-1.5445948 0.55094,-0.9739801 0.55094,-2.1939149 0,-1.85941664 -1.22977,-3.1088659 -1.21994,-1.2494493 -3.01049,-1.2494493 z"
         style="font-family:'Century Gothic';-inkscape-font-specification:'Century Gothic';text-align:end;text-anchor:end;fill:#e6e6e6"
         id="path2487" />
      <path
         d="m -187.27457,2.8968163 1.16091,0.6099674 q -0.57061,1.1215529 -1.31832,1.8102257 -0.7477,0.6886728 -1.68233,1.0526856 -0.93462,0.3541746 -2.11521,0.3541746 -2.61695,0 -4.09268,-1.7118439 -1.47573,-1.7216821 -1.47573,-3.8860824 0,-2.03650399 1.24945,-3.6302897 1.58395,-2.0266658 4.24026,-2.0266658 2.73501,0 4.36815,2.0758567 1.16091,1.46588934 1.18058,3.6598042 h -9.62174 q 0.0393,1.8692549 1.19042,3.0695133 1.15107,1.1904202 2.84324,1.1904202 0.81657,0 1.58394,-0.2853074 0.77722,-0.2853073 1.31832,-0.7575401 0.5411,-0.4722328 1.17074,-1.5249184 z m 0,-2.88258775 q -0.27546,-1.10187655 -0.80673,-1.76103485 -0.52142,-0.6591583 -1.38718,-1.0625238 -0.86576,-0.4033655 -1.82006,-0.4033655 -1.57411,0 -2.70551,1.0133329 -0.8264,0.7378637 -1.24944,2.21359125 z"
         style="font-family:'Century Gothic';-inkscape-font-specification:'Century Gothic';text-align:end;text-anchor:end;fill:#e6e6e6"
         id="path2489" />
      <path
         d="m -177.81023,-3.0847992 -0.88544,0.914951 q -1.10188,-1.072362 -2.15456,-1.072362 -0.669,0 -1.15107,0.4427183 -0.47223,0.4427182 -0.47223,1.0330092 0,0.5214238 0.39352,0.99365657 0.39353,0.48207099 1.65282,1.1313911 1.53476,0.79689283 2.08569,1.53475663 0.5411,0.7477019 0.5411,1.6823293 0,1.3183166 -0.92478,2.2332677 -0.92479,0.914951 -2.31198,0.914951 -0.92479,0 -1.77087,-0.4033655 -0.83625,-0.4033655 -1.38718,-1.1117147 l 0.86576,-0.9838184 q 1.05268,1.1904202 2.23326,1.1904202 0.82641,0 1.40686,-0.5312619 0.58046,-0.5312619 0.58046,-1.2494493 0,-0.590291 -0.38369,-1.0526856 -0.38369,-0.4525564 -1.73152,-1.1412293 -1.44622,-0.7477019 -1.96764,-1.47572747 -0.52142,-0.72802557 -0.52142,-1.66265303 0,-1.2199347 0.8264,-2.0266657 0.83625,-0.8067311 2.10537,-0.8067311 1.47573,0 2.97114,1.446213 z"
         style="font-family:'Century Gothic';-inkscape-font-specification:'Century Gothic';text-align:end;text-anchor:end;fill:#e6e6e6"
         id="path2491" />
      <path
         d="m -174.88829,-8.6630492 q 0.47223,0 0.80673,0.3344982 0.3345,0.3344983 0.3345,0.8067311 0,0.4623946 -0.3345,0.7968928 -0.3345,0.3344982 -0.80673,0.3344982 -0.4624,0 -0.7969,-0.3344982 -0.33449,-0.3344982 -0.33449,-0.7968928 0,-0.4722328 0.33449,-0.8067311 0.3345,-0.3344982 0.7969,-0.3344982 z m -0.68868,4.4075061 h 1.38719 V 6.4484005 h -1.38719 z"
         style="font-family:'Century Gothic';-inkscape-font-specification:'Century Gothic';text-align:end;text-anchor:end;fill:#e6e6e6"
         id="path2493" />
      <path
         d="m -162.11833,-4.2555431 h 1.38718 V 4.274162 q 0,2.252944 -0.39353,3.2957914 -0.5411,1.4757275 -1.87909,2.2726204 -1.33799,0.7968932 -3.21709,0.7968932 -1.37734,0 -2.47922,-0.393528 -1.09204,-0.3836889 -1.78071,-1.0428471 -0.68867,-0.6493202 -1.26912,-1.9086076 h 1.4954 q 0.60997,1.0625238 1.57411,1.5741093 0.96414,0.5115856 2.39068,0.5115856 1.40686,0 2.371,-0.531262 0.97398,-0.5214237 1.38718,-1.3183165 0.41321,-0.7968929 0.41321,-2.5677659 V 4.4118965 q -0.77722,0.9838184 -1.89877,1.5150803 -1.12156,0.5214237 -2.38084,0.5214237 -1.47573,0 -2.77437,-0.7280256 -1.29864,-0.7378637 -2.00699,-1.9774748 -0.70835,-1.2396112 -0.70835,-2.7251768 0,-1.48556574 0.73786,-2.7645296 0.73787,-1.288802 2.03651,-2.0365039 1.30848,-0.747702 2.75469,-0.747702 1.20026,0 2.23327,0.5017474 1.04284,0.4919091 2.00699,1.6331384 z m -4.06317,1.0526857 q -1.17075,0 -2.17424,0.5706146 -1.0035,0.5607765 -1.57411,1.5642712 -0.57062,0.9936565 -0.57062,2.1545621 0,1.7610349 1.18059,2.9121023 1.18058,1.1510675 3.05967,1.1510675 1.89877,0 3.04984,-1.1412293 1.1609,-1.1412293 1.1609,-3.0006459 0,-1.21009659 -0.53126,-2.1545622 -0.53126,-0.9543038 -1.50524,-1.5052421 -0.97398,-0.5509382 -2.09553,-0.5509382 z"
         style="font-family:'Century Gothic';-inkscape-font-specification:'Century Gothic';text-align:end;text-anchor:end;fill:#e6e6e6"
         id="path2495" />
      <path
         d="m -157.77969,-4.2555431 h 1.37734 v 1.9184458 q 0.82641,-1.1018765 1.82991,-1.6429766 1.00349,-0.5509383 2.18407,-0.5509383 1.20026,0 2.12505,0.6099674 0.93463,0.6099674 1.37735,1.6429766 0.44271,1.0330093 0.44271,3.21708599 V 6.4484005 h -1.3675 V 1.3423833 q 0,-1.84957847 -0.15742,-2.469384 -0.24595,-1.0625238 -0.92478,-1.5937857 -0.67884,-0.5411001 -1.77088,-0.5411001 -1.24945,0 -2.2431,0.8264074 -0.98382,0.8264074 -1.29864,2.04634213 -0.19677,0.79689285 -0.19677,2.91210227 v 3.9254352 h -1.37734 z"
         style="font-family:'Century Gothic';-inkscape-font-specification:'Century Gothic';text-align:end;text-anchor:end;fill:#e6e6e6"
         id="path2497" />
      <path
         d="m -136.48003,2.8968163 1.16091,0.6099674 q -0.57061,1.1215529 -1.31832,1.8102257 -0.7477,0.6886728 -1.68233,1.0526856 -0.93462,0.3541746 -2.11521,0.3541746 -2.61695,0 -4.09268,-1.7118439 -1.47573,-1.7216821 -1.47573,-3.8860824 0,-2.03650399 1.24945,-3.6302897 1.58395,-2.0266658 4.24026,-2.0266658 2.73501,0 4.36815,2.0758567 1.16091,1.46588934 1.18058,3.6598042 h -9.62174 q 0.0394,1.8692549 1.19042,3.0695133 1.15107,1.1904202 2.84324,1.1904202 0.81657,0 1.58394,-0.2853074 0.77722,-0.2853073 1.31832,-0.7575401 0.5411,-0.4722328 1.17074,-1.5249184 z m 0,-2.88258775 q -0.27546,-1.10187655 -0.80673,-1.76103485 -0.52142,-0.6591583 -1.38718,-1.0625238 -0.86576,-0.4033655 -1.82006,-0.4033655 -1.57411,0 -2.7055,1.0133329 -0.82641,0.7378637 -1.24945,2.21359125 z"
         style="font-family:'Century Gothic';-inkscape-font-specification:'Century Gothic';text-align:end;text-anchor:end;fill:#e6e6e6"
         id="path2499" />
      <path
         d="m -132.91861,-4.2555431 h 1.40686 v 1.5642712 q 0.62965,-0.9247892 1.32816,-1.3773457 0.69851,-0.4623946 1.45605,-0.4623946 0.57062,0 1.21994,0.3640128 l -0.71819,1.1609056 q -0.43288,-0.1869254 -0.72803,-0.1869254 -0.68867,0 -1.32815,0.5706146 -0.63948,0.5607764 -0.97398,1.75119664 -0.2558,0.91495106 -0.2558,3.69915696 v 3.6204515 h -1.40686 z"
         style="font-family:'Century Gothic';-inkscape-font-specification:'Century Gothic';text-align:end;text-anchor:end;fill:#e6e6e6"
         id="path2501" />
      <path
         d="m -111.74683,2.8968163 1.1609,0.6099674 q -0.57061,1.1215529 -1.31831,1.8102257 -0.74771,0.6886728 -1.68233,1.0526856 -0.93463,0.3541746 -2.11521,0.3541746 -2.61696,0 -4.09269,-1.7118439 -1.47572,-1.7216821 -1.47572,-3.8860824 0,-2.03650399 1.24944,-3.6302897 1.58395,-2.0266658 4.24026,-2.0266658 2.73502,0 4.36816,2.0758567 1.1609,1.46588934 1.18058,3.6598042 h -9.62175 q 0.0394,1.8692549 1.19042,3.0695133 1.15107,1.1904202 2.84324,1.1904202 0.81657,0 1.58395,-0.2853074 0.77721,-0.2853073 1.31831,-0.7575401 0.5411,-0.4722328 1.17075,-1.5249184 z m 0,-2.88258775 q -0.27547,-1.10187655 -0.80673,-1.76103485 -0.52143,-0.6591583 -1.38719,-1.0625238 -0.86576,-0.4033655 -1.82006,-0.4033655 -1.57411,0 -2.7055,1.0133329 -0.82641,0.7378637 -1.24945,2.21359125 z"
         style="font-family:'Century Gothic';-inkscape-font-specification:'Century Gothic';text-align:end;text-anchor:end;fill:#e6e6e6"
         id="path2503" />
      <path
         d="m -101.60366,-8.6630492 q 0.47223,0 0.80673,0.3344982 0.3345,0.3344983 0.3345,0.8067311 0,0.4623946 -0.3345,0.7968928 -0.3345,0.3344982 -0.80673,0.3344982 -0.4624,0 -0.7969,-0.3344982 -0.33449,-0.3344982 -0.33449,-0.7968928 0,-0.4722328 0.33449,-0.8067311 0.3345,-0.3344982 0.7969,-0.3344982 z m -0.68868,4.4075061 h 1.38719 V 6.4484005 h -1.38719 z"
         style="font-family:'Century Gothic';-inkscape-font-specification:'Century Gothic';text-align:end;text-anchor:end;fill:#e6e6e6"
         id="path2505" />
      <path
         d="m -98.258683,-8.3875801 h 1.377346 V 6.4484005 h -1.377346 z"
         style="font-family:'Century Gothic';-inkscape-font-specification:'Century Gothic';text-align:end;text-anchor:end;fill:#e6e6e6"
         id="path2507" />
      <path
         d="m -94.195515,-4.2555431 h 1.387184 v 4.99779722 q 0,1.82990208 0.196763,2.51857498 0.295146,0.9838183 1.121553,1.554433 0.836246,0.5706146 1.987313,0.5706146 1.151068,0 1.947961,-0.5509383 0.806731,-0.5607764 1.111714,-1.4658893 0.206602,-0.6198056 0.206602,-2.62679498 V -4.2555431 h 1.40686 v 5.25358999 q 0,2.21359131 -0.521423,3.33514421 -0.511586,1.1215529 -1.554433,1.7610348 -1.03301,0.6296437 -2.597281,0.6296437 -1.564271,0 -2.616957,-0.6296437 -1.042847,-0.6394819 -1.564271,-1.770873 -0.511585,-1.1412293 -0.511585,-3.42368785 z"
         style="font-family:'Century Gothic';-inkscape-font-specification:'Century Gothic';text-align:end;text-anchor:end;fill:#e6e6e6"
         id="path2509" />
      <path
         d="m -76.388399,-3.0847992 -0.885436,0.914951 q -1.101877,-1.072362 -2.154563,-1.072362 -0.668996,0 -1.151067,0.4427183 -0.472233,0.4427182 -0.472233,1.0330092 0,0.5214238 0.393528,0.99365657 0.393527,0.48207099 1.652814,1.1313911 1.534757,0.79689283 2.085695,1.53475663 0.5411,0.7477019 0.5411,1.6823293 0,1.3183166 -0.924789,2.2332677 -0.924789,0.914951 -2.311973,0.914951 -0.924789,0 -1.770873,-0.4033655 -0.836246,-0.4033655 -1.387184,-1.1117147 l 0.86576,-0.9838184 q 1.052686,1.1904202 2.233268,1.1904202 0.826407,0 1.40686,-0.5312619 0.580453,-0.5312619 0.580453,-1.2494493 0,-0.590291 -0.383689,-1.0526856 -0.383689,-0.4525564 -1.73152,-1.1412293 -1.446213,-0.7477019 -1.967637,-1.47572747 -0.521424,-0.72802557 -0.521424,-1.66265303 0,-1.2199347 0.826408,-2.0266657 0.836245,-0.8067311 2.105371,-0.8067311 1.475727,0 2.971131,1.446213 z"
         style="font-family:'Century Gothic';-inkscape-font-specification:'Century Gothic';text-align:end;text-anchor:end;fill:#e6e6e6"
         id="path2511" />
      <path
         d="m -72.748277,-8.2301692 h 1.387184 v 3.9746261 h 2.184077 v 1.1805821 h -2.184077 v 9.5233615 h -1.387184 V -3.074961 h -1.879093 v -1.1805821 h 1.879093 z"
         style="font-family:'Century Gothic';-inkscape-font-specification:'Century Gothic';text-align:end;text-anchor:end;fill:#e6e6e6"
         id="path2513" />
      <path
         d="m -67.642261,-4.2555431 h 1.40686 v 1.5642712 q 0.629644,-0.9247892 1.328155,-1.3773457 0.698511,-0.4623946 1.456051,-0.4623946 0.570615,0 1.219935,0.3640128 l -0.718188,1.1609056 q -0.43288,-0.1869254 -0.728025,-0.1869254 -0.688673,0 -1.328155,0.5706146 -0.639482,0.5607764 -0.97398,1.75119664 -0.255793,0.91495106 -0.255793,3.69915696 v 3.6204515 h -1.40686 z"
         style="font-family:'Century Gothic';-inkscape-font-specification:'Century Gothic';text-align:end;text-anchor:end;fill:#e6e6e6"
         id="path2515" />
      <path
         d="M -50.395929,-4.2555431 V 6.4484005 h -1.357669 V 4.6086602 q -0.86576,1.0526856 -1.94796,1.5839475 -1.072362,0.5312619 -2.351326,0.5312619 -2.27262,0 -3.886082,-1.6429766 -1.603624,-1.6528148 -1.603624,-4.0139788 0,-2.3119731 1.6233,-3.9549498 1.6233,-1.6429766 3.905759,-1.6429766 1.318316,0 2.38084,0.5607765 1.072362,0.5607764 1.879093,1.6823293 v -1.9676367 z m -5.509382,1.0526857 q -1.151068,0 -2.125048,0.5706146 -0.97398,0.5607765 -1.554433,1.5839475 -0.570614,1.02317111 -0.570614,2.1644004 0,1.1313911 0.580452,2.1644003 0.580453,1.0330093 1.554433,1.6134621 0.983819,0.5706147 2.105372,0.5706147 1.131391,0 2.144724,-0.5706147 1.013332,-0.5706146 1.554433,-1.5445948 0.550938,-0.9739801 0.550938,-2.1939149 0,-1.85941664 -1.229773,-3.1088659 -1.219935,-1.2494493 -3.010484,-1.2494493 z"
         style="font-family:'Century Gothic';-inkscape-font-specification:'Century Gothic';text-align:end;text-anchor:end;fill:#e6e6e6"
         id="path2517" />
      <path
         d="M -36.612626,-8.3875801 V 6.4484005 h -1.357669 V 4.6086602 q -0.86576,1.0526856 -1.947961,1.5839475 -1.072362,0.5312619 -2.351326,0.5312619 -2.27262,0 -3.886082,-1.6429766 -1.603624,-1.6528148 -1.603624,-4.0139788 0,-2.3119731 1.6233,-3.9549498 1.623301,-1.6429766 3.905759,-1.6429766 1.318317,0 2.380841,0.5607765 1.072362,0.5607764 1.879093,1.6823293 v -6.0996737 z m -5.509383,5.1847227 q -1.151067,0 -2.125047,0.5706146 -0.973981,0.5607765 -1.554433,1.5839475 -0.570615,1.02317111 -0.570615,2.1644004 0,1.1313911 0.580453,2.1644003 0.580453,1.0330093 1.554433,1.6134621 0.983818,0.5706147 2.105371,0.5706147 1.131391,0 2.144724,-0.5706147 1.013333,-0.5706146 1.554433,-1.5445948 0.550938,-0.9739801 0.550938,-2.1939149 0,-1.85941664 -1.229773,-3.1088659 -1.219934,-1.2494493 -3.010484,-1.2494493 z"
         style="font-family:'Century Gothic';-inkscape-font-specification:'Century Gothic';text-align:end;text-anchor:end;fill:#e6e6e6"
         id="path2519" />
      <path
         d="m -28.427266,-4.5310122 q 2.469385,0 4.092685,1.7905494 1.475727,1.6331384 1.475727,3.8664061 0,2.2431058 -1.564271,3.9254352 -1.554433,1.6724911 -4.004141,1.6724911 -2.459545,0 -4.023817,-1.6724911 -1.554433,-1.6823294 -1.554433,-3.9254352 0,-2.2234295 1.475728,-3.8565679 1.6233,-1.8003876 4.102522,-1.8003876 z m 0,1.3478311 q -1.711843,0 -2.941616,1.2691257 -1.229773,1.26912566 -1.229773,3.0695132 0,1.1609057 0.560776,2.1644004 0.560777,1.0034947 1.51508,1.554433 0.954304,0.5411 2.095533,0.5411 1.14123,0 2.095534,-0.5411 0.954303,-0.5509383 1.51508,-1.554433 0.560776,-1.0034947 0.560776,-2.1644004 0,-1.80038754 -1.239611,-3.0695132 -1.229773,-1.2691257 -2.931779,-1.2691257 z"
         style="font-family:'Century Gothic';-inkscape-font-specification:'Century Gothic';text-align:end;text-anchor:end;fill:#e6e6e6"
         id="path2521" />
      <path
         d="m -20.822345,-4.2555431 h 1.40686 v 1.5642712 q 0.629644,-0.9247892 1.328155,-1.3773457 0.698511,-0.4623946 1.456051,-0.4623946 0.570614,0 1.219935,0.3640128 l -0.718188,1.1609056 q -0.43288,-0.1869254 -0.728025,-0.1869254 -0.688673,0 -1.328155,0.5706146 -0.639482,0.5607764 -0.97398,1.75119664 -0.255793,0.91495106 -0.255793,3.69915696 v 3.6204515 h -1.40686 z"
         style="font-family:'Century Gothic';-inkscape-font-specification:'Century Gothic';text-align:end;text-anchor:end;fill:#e6e6e6"
         id="path2523" />
      <path
         d="M -3.5760127,-4.2555431 V 6.4484005 H -4.9336821 V 4.6086602 q -0.8657601,1.0526856 -1.9479603,1.5839475 -1.072362,0.5312619 -2.3513258,0.5312619 -2.2726208,0 -3.8860828,-1.6429766 -1.603624,-1.6528148 -1.603624,-4.0139788 0,-2.3119731 1.623301,-3.9549498 1.6233,-1.6429766 3.9057585,-1.6429766 1.3183166,0 2.3808404,0.5607765 1.072362,0.5607764 1.879093,1.6823293 v -1.9676367 z m -5.5093827,1.0526857 q -1.1510676,0 -2.1250476,0.5706146 -0.97398,0.5607765 -1.554433,1.5839475 -0.570615,1.02317111 -0.570615,2.1644004 0,1.1313911 0.580453,2.1644003 0.580453,1.0330093 1.554433,1.6134621 0.983818,0.5706147 2.1053714,0.5706147 1.1313911,0 2.144724,-0.5706147 1.0133328,-0.5706146 1.5544329,-1.5445948 0.5509383,-0.9739801 0.5509383,-2.1939149 0,-1.85941664 -1.2297729,-3.1088659 -1.2199348,-1.2494493 -3.0104841,-1.2494493 z"
         style="font-family:'Century Gothic';-inkscape-font-specification:'Century Gothic';text-align:end;text-anchor:end;fill:#e6e6e6"
         id="path2525" />
    </g>
    <g
       id="g1178"
       transform="matrix(1.1329801,0,0,1.1329801,63.962307,-108.72849)"
       style="display:inline;fill:#e6e6e6;fill-opacity:1;stroke-width:0.97559">
      <g
         transform="translate(276.00846,-76.773222)"
         id="g1130"
         style="fill:#e6e6e6;fill-opacity:1;stroke-width:0.97559">
        <path
           d="m -331.27993,133.35288 c 0,-0.39159 0.13985,-0.71326 0.41956,-0.965 0.27971,-0.27971 0.60138,-0.41957 0.965,-0.41957 0.33565,0 0.64334,0.13986 0.92305,0.41957 0.27971,0.25174 0.41956,0.57341 0.41956,0.965 0,0.39159 -0.13985,0.72725 -0.41956,1.00696 -0.27971,0.25174 -0.5874,0.37761 -0.92305,0.37761 -0.36362,0 -0.68529,-0.12587 -0.965,-0.37761 -0.27971,-0.27971 -0.41956,-0.61537 -0.41956,-1.00696 z m -0.58739,28.8661 c -0.71216,0.0993 -1.45169,-0.80453 -1.2587,-1.2587 0,0 1.25869,-1.55239 1.67826,-2.55934 0.41957,-1.00696 0.62935,-2.18174 0.62935,-3.52435 V 138.9331 c 0,-0.57341 1.72022,-0.65975 1.72022,0 v 15.90153 c 0,1.65029 -0.25174,3.0908 -0.75522,4.32152 -0.47551,1.23073 -2.01391,3.06283 -2.01391,3.06283 z"
           style="font-style:normal;font-variant:normal;font-weight:normal;font-stretch:normal;font-size:41.9565px;line-height:0;font-family:'Josefin Sans';-inkscape-font-specification:'Josefin Sans';letter-spacing:0px;word-spacing:0px;fill:#e6e6e6;fill-opacity:1;stroke:none;stroke-width:0.548202"
           id="path850" />
        <path
           d="m -326.93349,147.04672 q 0,-1.67826 0.62935,-3.18869 0.67131,-1.51044 1.76218,-2.60131 1.13282,-1.13283 2.6013,-1.76217 1.51044,-0.67131 3.23066,-0.67131 1.72021,0 3.23065,0.67131 1.51044,0.62934 2.64326,1.76217 1.13283,1.09087 1.76218,2.60131 0.6713,1.51043 0.6713,3.18869 0,1.72022 -0.6713,3.23066 -0.62935,1.46848 -1.76218,2.55935 -1.13282,1.09087 -2.64326,1.76217 -1.51044,0.62935 -3.23065,0.62935 -1.72022,0 -3.23066,-0.62935 -1.46848,-0.6713 -2.6013,-1.76217 -1.09087,-1.09087 -1.76218,-2.55935 -0.62935,-1.51044 -0.62935,-3.23066 z m 1.76218,0 q 0,1.34261 0.50348,2.5174 0.50348,1.17478 1.38456,2.05587 0.88109,0.88108 2.05587,1.38456 1.17479,0.50348 2.5174,0.50348 1.34261,0 2.51739,-0.50348 1.17478,-0.50348 2.05587,-1.38456 0.88109,-0.88109 1.38457,-2.05587 0.54543,-1.17479 0.54543,-2.5174 0,-1.34261 -0.54543,-2.51739 -0.50348,-1.17478 -1.38457,-2.05587 -0.88109,-0.88109 -2.05587,-1.38457 -1.17478,-0.54543 -2.51739,-0.54543 -1.34261,0 -2.5174,0.54543 -1.17478,0.50348 -2.05587,1.38457 -0.88108,0.88109 -1.38456,2.05587 -0.50348,1.17478 -0.50348,2.51739 z"
           style="font-style:normal;font-variant:normal;font-weight:normal;font-stretch:normal;font-size:41.9565px;line-height:0;font-family:'Josefin Sans';-inkscape-font-specification:'Josefin Sans';letter-spacing:0px;word-spacing:0px;fill:#e6e6e6;fill-opacity:1;stroke:none;stroke-width:0.548202"
           id="path852" />
        <path
           id="path1057"
           style="font-style:normal;font-variant:normal;font-weight:normal;font-stretch:normal;font-size:41.9565px;line-height:0;font-family:'Josefin Sans';-inkscape-font-specification:'Josefin Sans';letter-spacing:0px;word-spacing:0px;fill:#e6e6e6;fill-opacity:1;stroke:none;stroke-width:0.548202"
           d="m -335.42749,154.89259 c 0,0.0125 -1.59434,0 -1.59434,0 0,0 -0.0167,-4.09063 -0.042,-4.06978 -0.55942,1.31464 -1.45449,2.37754 -2.68522,3.1887 -1.23073,0.81116 -2.62928,1.21674 -4.19565,1.21674 -1.53841,0 -2.75515,-0.43356 -3.65022,-1.30066 -0.89507,-0.8671 -1.37058,-1.99993 -1.42653,-3.39848 v -11.37022 c 0,-0.50758 1.76218,-0.6273 1.76218,0 v 10.9087 c 0.0559,0.89507 0.39159,1.67826 1.00696,2.34957 0.58739,0.6713 1.46847,1.03493 2.64326,1.09087 0.83913,0 1.65029,-0.15384 2.43348,-0.46153 0.78319,-0.27971 1.46848,-0.6713 2.05587,-1.17478 0.58739,-0.50348 1.0629,-1.10486 1.42652,-1.80413 0.33565,-0.69927 0.50348,-1.46848 0.50348,-2.30761 v -8.60109 c 0,-0.54748 1.76217,-0.58739 1.76217,0 z" />
        <path
           id="path1074"
           style="font-style:normal;font-variant:normal;font-weight:normal;font-stretch:normal;font-size:41.9565px;line-height:0;font-family:'Josefin Sans';-inkscape-font-specification:'Josefin Sans';letter-spacing:0px;word-spacing:0px;fill:#e6e6e6;fill-opacity:1;stroke:none;stroke-width:0.548202"
           d="m -369.3689,140.8791 c 0,0 -1.7342,0.19583 -2.51739,0.50348 -0.75522,0.27971 -1.41254,0.6713 -1.97196,1.17478 -0.55942,0.50348 -1.00696,1.10486 -1.34261,1.80413 -0.33565,0.69928 -0.50347,1.4545 -0.50347,2.26566 v 8.6011 h -1.76218 v -15.73372 c 0,-0.47061 1.59435,-0.47061 1.59435,0 v 1.46848 1.30066 c 0,0.39159 0.014,0.82514 0.042,1.30065 0.61536,-1.37058 1.5384,-2.43348 2.76913,-3.1887 1.25869,-0.78319 3.81804,-1.21674 3.81804,-1.21674 0.43364,0.24563 0.47123,1.65111 -0.12591,1.72022 z" />
        <path
           id="path1076"
           style="font-style:normal;font-variant:normal;font-weight:normal;font-stretch:normal;font-size:41.9565px;line-height:0;font-family:'Josefin Sans';-inkscape-font-specification:'Josefin Sans';letter-spacing:0px;word-spacing:0px;fill:#e6e6e6;fill-opacity:1;stroke:none;stroke-width:0.548202"
           d="m -367.50905,147.0465 c 0,0.89507 0.16783,1.7342 0.50348,2.51739 0.33565,0.78319 0.78319,1.46848 1.34261,2.05587 0.58739,0.58739 1.27268,1.04892 2.05587,1.38457 0.81116,0.33565 1.67826,0.50348 2.60131,0.50348 0.92304,0 1.77616,-0.16783 2.55935,-0.50348 0.78319,-0.33565 1.46848,-0.79718 2.05587,-1.38457 0.58739,-0.58739 1.04891,-1.27268 1.38456,-2.05587 0.33565,-0.78319 0.50348,-1.62232 0.50348,-2.51739 0,-0.89507 -0.16783,-1.7342 -0.50348,-2.51739 -0.33565,-0.81116 -0.79717,-1.51044 -1.38456,-2.09783 -0.58739,-0.58739 -1.27268,-1.04891 -2.05587,-1.38456 -0.78319,-0.33565 -1.63631,-0.50348 -2.55935,-0.50348 -0.92305,0 -1.79015,0.16783 -2.60131,0.50348 -0.78319,0.33565 -1.46848,0.79717 -2.05587,1.38456 -0.55942,0.58739 -1.00696,1.28667 -1.34261,2.09783 -0.33565,0.78319 -0.50348,1.62232 -0.50348,2.51739 z m -1.76217,0 c 0,-1.11884 0.20978,-2.16775 0.62935,-3.14674 0.44753,-1.00696 1.03492,-1.87406 1.76217,-2.60131 0.75522,-0.75521 1.63631,-1.3426 2.64327,-1.76217 1.00695,-0.44753 2.08384,-0.6713 3.23065,-0.6713 0.81116,0 1.58036,0.12587 2.30761,0.3776 0.72725,0.22377 1.38457,0.53146 1.97196,0.92305 0.58739,0.36362 1.07688,0.79717 1.46848,1.30065 0.41956,0.47551 0.72724,0.95101 0.92304,1.42652 0,-0.61536 0.0141,-1.2312 0.042,-1.84608 0.028,-0.61616 0.12587,-1.84609 0.12587,-1.84609 -0.0613,-0.43511 1.42652,-0.41445 1.42652,0 v 12.10085 c 0,0.53145 -1.4746,0.49355 -1.55118,-0.0175 -0.001,-0.008 1.4e-4,-0.001 1.4e-4,-0.001 -0.16783,0.47551 -0.46287,0.95236 -0.88244,1.42787 -0.39159,0.47551 -0.88109,0.90907 -1.46848,1.30066 -0.55942,0.36362 -1.21674,0.65731 -1.97196,0.88108 -0.72725,0.22377 -1.52442,0.33566 -2.39152,0.33566 -1.14681,0 -2.2237,-0.20978 -3.23065,-0.62935 -1.00696,-0.44754 -1.88805,-1.03493 -2.64327,-1.76218 -0.72725,-0.72725 -1.31464,-1.58036 -1.76217,-2.55935 -0.41957,-1.00695 -0.62935,-2.08384 -0.62935,-3.23065 z" />
        <path
           d="m -392.4969,128.41942 c 0,0 -5.06603,12.63223 -5.16066,12.54501 h 10.36327 z m 13.00653,26.81023 h -1.76218 l -5.32848,-12.58696 h -11.78979 c 0,0 -5.20847,12.65079 -5.32848,12.58696 h -1.80413 l 12.31498,-30.4544 c 0.13504,-0.33396 1.20812,-0.32694 1.32664,-0.003 0,0 12.43261,30.64024 12.37144,30.45725 z"
           style="font-style:normal;font-variant:normal;font-weight:normal;font-stretch:normal;font-size:41.9565px;line-height:0;font-family:'Josefin Sans';-inkscape-font-specification:'Josefin Sans';letter-spacing:0px;word-spacing:0px;fill:#e6e6e6;fill-opacity:1;stroke:none;stroke-width:0.548202"
           id="path1111" />
      </g>
      <g
         transform="translate(276.00846,-38.738029)"
         id="g1158"
         style="fill:#e6e6e6;fill-opacity:1;stroke-width:0.97559">
        <path
           d="m -497.76492,109.00274 c 0,0.89507 0.16782,1.7342 0.50347,2.51739 0.33565,0.78319 0.78319,1.46848 1.34261,2.05587 0.58739,0.58739 1.27268,1.04892 2.05587,1.38457 0.78319,0.33565 1.63631,0.50348 2.55935,0.50348 0.92305,0 1.77616,-0.16783 2.55935,-0.50348 0.81116,-0.33565 1.51044,-0.79718 2.09783,-1.38457 0.58739,-0.58739 1.04892,-1.27268 1.38457,-2.05587 0.33565,-0.78319 0.50347,-1.62232 0.50347,-2.51739 0,-0.89507 -0.16782,-1.7342 -0.50347,-2.51739 -0.33565,-0.81116 -0.79718,-1.51044 -1.38457,-2.09783 -0.58739,-0.58739 -1.28667,-1.04891 -2.09783,-1.38457 -0.78319,-0.33565 -1.6363,-0.50347 -2.55935,-0.50347 -0.92304,0 -1.77616,0.16782 -2.55935,0.50347 -0.78319,0.33566 -1.46848,0.79718 -2.05587,1.38457 -0.55942,0.58739 -1.00696,1.28667 -1.34261,2.09783 -0.33565,0.78319 -0.50347,1.62232 -0.50347,2.51739 z m -1.76218,0 c 0,-1.11884 0.20978,-2.16775 0.62935,-3.14674 0.41957,-1.00696 0.99297,-1.87406 1.72022,-2.60131 0.75521,-0.75521 1.6363,-1.34261 2.64326,-1.76217 1.00696,-0.44754 2.08384,-0.6713 3.23065,-0.6713 0.83913,0 1.62232,0.12586 2.34957,0.3776 0.72725,0.22377 1.38457,0.53145 1.97196,0.92305 0.58739,0.36362 1.09087,0.78319 1.51043,1.25869 0.41957,0.47551 0.71326,0.95102 0.88109,1.42653 -0.0612,-0.64667 -0.13981,-1.25684 -0.1678,-1.88805 -0.25839,-5.826238 0,-17.495885 0,-17.495885 0,-0.415668 1.72022,-0.458687 1.72022,0 v 27.817065 c -0.76774,0.90626 -1.55239,0 -1.55239,0 v 1.3e-4 c -0.16783,0.47551 -0.46152,0.95101 -0.88109,1.42652 -0.39159,0.47551 -0.88109,0.90906 -1.46848,1.30066 -0.55942,0.36362 -1.21674,0.65731 -1.97195,0.88108 -0.72725,0.22377 -1.52442,0.33565 -2.39153,0.33565 -1.14681,0 -2.22369,-0.20978 -3.23065,-0.62934 -1.00696,-0.44754 -1.88805,-1.03493 -2.64326,-1.76218 -0.72725,-0.72725 -1.30065,-1.58036 -1.72022,-2.55935 -0.41957,-1.00695 -0.62935,-2.08384 -0.62935,-3.23065 z"
           style="font-style:normal;font-variant:normal;font-weight:normal;font-stretch:normal;font-size:41.9565px;line-height:0;font-family:'Josefin Sans';-inkscape-font-specification:'Josefin Sans';letter-spacing:0px;word-spacing:0px;fill:#e6e6e6;fill-opacity:1;stroke:none;stroke-width:0.548202"
           id="path830" />
        <path
           d="m -472.1065,102.83511 c 0,0 -1.7342,0.19583 -2.51739,0.50348 -0.75522,0.27971 -1.41254,0.6713 -1.97196,1.17478 -0.55942,0.50348 -1.00696,1.10486 -1.34261,1.80413 -0.33565,0.69928 -0.50347,1.4545 -0.50347,2.26566 v 8.6011 h -1.76218 v -15.73372 c 0,-0.47061 1.59435,-0.47061 1.59435,0 v 1.46848 1.30066 c 0,0.39159 0.014,0.82514 0.042,1.30065 0.61536,-1.37058 1.5384,-2.43348 2.76913,-3.1887 1.25869,-0.78319 3.81804,-1.21674 3.81804,-1.21674 0.43364,0.24563 0.47123,1.65111 -0.12591,1.72022 z"
           style="font-style:normal;font-variant:normal;font-weight:normal;font-stretch:normal;font-size:41.9565px;line-height:0;font-family:'Josefin Sans';-inkscape-font-specification:'Josefin Sans';letter-spacing:0px;word-spacing:0px;fill:#e6e6e6;fill-opacity:1;stroke:none;stroke-width:0.548202"
           id="path832" />
        <path
           d="m -444.82383,102.66729 c 0.31488,0.42391 -0.5716,1.47818 -1.00696,1.2587 0,0 -0.81116,-0.71326 -1.42652,-0.965 -0.61537,-0.25174 -1.23073,-0.37761 -1.84609,-0.37761 -0.33565,0 -0.67131,0.0559 -1.00696,0.16783 -0.33565,0.0839 -0.64333,0.23775 -0.92304,0.46152 -0.27971,0.19579 -0.50348,0.46152 -0.67131,0.79717 -0.13985,0.30768 -0.20978,0.69928 -0.20978,1.17479 0.028,0.61536 0.23778,1.10485 0.62935,1.46847 0.39159,0.33565 0.8671,0.62935 1.42652,0.88109 0.55942,0.22377 1.17478,0.44754 1.84609,0.67131 0.67131,0.19579 1.28667,0.46152 1.84609,0.79717 0.55942,0.33565 1.02094,0.7692 1.38456,1.30065 0.39159,0.53145 0.58739,1.24472 0.58739,2.13979 0,0.47551 -0.0979,0.99297 -0.29369,1.55239 -0.16783,0.53145 -0.44754,1.03492 -0.83913,1.51043 -0.39159,0.47551 -0.90906,0.88109 -1.55239,1.21674 -0.64333,0.30769 -1.44051,0.46153 -2.39153,0.46153 -0.8671,0 -1.77616,-0.15384 -2.72717,-0.46153 -0.92305,-0.30768 -2.2237,-1.51043 -2.2237,-1.51043 -0.19966,-0.44495 0.55477,-1.43613 1.13283,-1.2587 0,0 1.03492,0.85312 1.76217,1.13283 0.72725,0.25174 1.45449,0.37761 2.18174,0.37761 0.25174,0 0.55942,-0.042 0.92305,-0.12587 0.36362,-0.11189 0.71326,-0.27971 1.04891,-0.50348 0.33565,-0.25174 0.61536,-0.55942 0.83913,-0.92304 0.25174,-0.36363 0.37761,-0.81116 0.37761,-1.34261 0,-0.72725 -0.18181,-1.28667 -0.54544,-1.67827 -0.36362,-0.39159 -0.83913,-0.69927 -1.42652,-0.92304 -0.55942,-0.25174 -1.17478,-0.46152 -1.84609,-0.62935 -0.6713,-0.19579 -1.30065,-0.44753 -1.88804,-0.75521 -0.55942,-0.30769 -1.03493,-0.71327 -1.42652,-1.21674 -0.39159,-0.50348 -0.58739,-1.21674 -0.58739,-2.13979 0,-0.72725 0.13985,-1.35659 0.41956,-1.88804 0.27971,-0.55942 0.64334,-1.02094 1.09087,-1.38457 0.44754,-0.36362 0.93703,-0.62934 1.46848,-0.79717 0.53145,-0.1958 1.04891,-0.2937 1.55239,-0.2937 0.58739,0 1.30066,0.13986 2.13979,0.41957 0.8671,0.25174 2.18174,1.38456 2.18174,1.38456 z"
           style="font-style:normal;font-variant:normal;font-weight:normal;font-stretch:normal;font-size:41.9565px;line-height:0;font-family:'Josefin Sans';-inkscape-font-specification:'Josefin Sans';letter-spacing:0px;word-spacing:0px;fill:#e6e6e6;fill-opacity:1;stroke:none;stroke-width:0.548202"
           id="path836" />
        <path
           id="path989"
           style="font-style:normal;font-variant:normal;font-weight:normal;font-stretch:normal;font-size:41.9565px;line-height:0;font-family:'Josefin Sans';-inkscape-font-specification:'Josefin Sans';letter-spacing:0px;word-spacing:0px;fill:#e6e6e6;fill-opacity:1;stroke:none;stroke-width:0.548202"
           d="m -444.82383,102.66729 c 0.31488,0.42391 -0.5716,1.47818 -1.00696,1.2587 0,0 -0.81116,-0.71326 -1.42652,-0.965 -0.61537,-0.25174 -1.23073,-0.37761 -1.84609,-0.37761 -0.33565,0 -0.67131,0.0559 -1.00696,0.16783 -0.33565,0.0839 -0.64333,0.23775 -0.92304,0.46152 -0.27971,0.19579 -0.50348,0.46152 -0.67131,0.79717 -0.13985,0.30768 -0.20978,0.69928 -0.20978,1.17479 0.028,0.61536 0.23778,1.10485 0.62935,1.46847 0.39159,0.33565 0.8671,0.62935 1.42652,0.88109 0.55942,0.22377 1.17478,0.44754 1.84609,0.67131 0.67131,0.19579 1.28667,0.46152 1.84609,0.79717 0.55942,0.33565 1.02094,0.7692 1.38456,1.30065 0.39159,0.53145 0.58739,1.24472 0.58739,2.13979 0,0.47551 -0.0979,0.99297 -0.29369,1.55239 -0.16783,0.53145 -0.44754,1.03492 -0.83913,1.51043 -0.39159,0.47551 -0.90906,0.88109 -1.55239,1.21674 -0.64333,0.30769 -1.44051,0.46153 -2.39153,0.46153 -0.8671,0 -1.77616,-0.15384 -2.72717,-0.46153 -0.92305,-0.30768 -2.2237,-1.51043 -2.2237,-1.51043 -0.19966,-0.44495 0.55477,-1.43613 1.13283,-1.2587 0,0 1.03492,0.85312 1.76217,1.13283 0.72725,0.25174 1.45449,0.37761 2.18174,0.37761 0.25174,0 0.55942,-0.042 0.92305,-0.12587 0.36362,-0.11189 0.71326,-0.27971 1.04891,-0.50348 0.33565,-0.25174 0.61536,-0.55942 0.83913,-0.92304 0.25174,-0.36363 0.37761,-0.81116 0.37761,-1.34261 0,-0.72725 -0.18181,-1.28667 -0.54544,-1.67827 -0.36362,-0.39159 -0.83913,-0.69927 -1.42652,-0.92304 -0.55942,-0.25174 -1.17478,-0.46152 -1.84609,-0.62935 -0.6713,-0.19579 -1.30065,-0.44753 -1.88804,-0.75521 -0.55942,-0.30769 -1.03493,-0.71327 -1.42652,-1.21674 -0.39159,-0.50348 -0.58739,-1.21674 -0.58739,-2.13979 0,-0.72725 0.13985,-1.35659 0.41956,-1.88804 0.27971,-0.55942 0.64334,-1.02094 1.09087,-1.38457 0.44754,-0.36362 0.93703,-0.62934 1.46848,-0.79717 0.53145,-0.1958 1.04891,-0.2937 1.55239,-0.2937 0.58739,0 1.30066,0.13986 2.13979,0.41957 0.8671,0.25174 2.18174,1.38456 2.18174,1.38456 z" />
        <path
           id="path991"
           style="font-style:normal;font-variant:normal;font-weight:normal;font-stretch:normal;font-size:41.9565px;line-height:0;font-family:'Josefin Sans';-inkscape-font-specification:'Josefin Sans';letter-spacing:0px;word-spacing:0px;fill:#e6e6e6;fill-opacity:1;stroke:none;stroke-width:0.548202"
           d="m -433.3519,102.66729 c 0.31488,0.42391 -0.5716,1.47818 -1.00696,1.2587 0,0 -0.81116,-0.71326 -1.42652,-0.965 -0.61537,-0.25174 -1.23073,-0.37761 -1.84609,-0.37761 -0.33565,0 -0.67131,0.0559 -1.00696,0.16783 -0.33565,0.0839 -0.64333,0.23775 -0.92304,0.46152 -0.27971,0.19579 -0.50348,0.46152 -0.67131,0.79717 -0.13985,0.30768 -0.20978,0.69928 -0.20978,1.17479 0.028,0.61536 0.23778,1.10485 0.62935,1.46847 0.39159,0.33565 0.8671,0.62935 1.42652,0.88109 0.55942,0.22377 1.17478,0.44754 1.84609,0.67131 0.67131,0.19579 1.28667,0.46152 1.84609,0.79717 0.55942,0.33565 1.02094,0.7692 1.38456,1.30065 0.39159,0.53145 0.58739,1.24472 0.58739,2.13979 0,0.47551 -0.0979,0.99297 -0.29369,1.55239 -0.16783,0.53145 -0.44754,1.03492 -0.83913,1.51043 -0.39159,0.47551 -0.90906,0.88109 -1.55239,1.21674 -0.64333,0.30769 -1.44051,0.46153 -2.39153,0.46153 -0.8671,0 -1.77616,-0.15384 -2.72717,-0.46153 -0.92305,-0.30768 -2.2237,-1.51043 -2.2237,-1.51043 -0.19966,-0.44495 0.55477,-1.43613 1.13283,-1.2587 0,0 1.03492,0.85312 1.76217,1.13283 0.72725,0.25174 1.45449,0.37761 2.18174,0.37761 0.25174,0 0.55942,-0.042 0.92305,-0.12587 0.36362,-0.11189 0.71326,-0.27971 1.04891,-0.50348 0.33565,-0.25174 0.61536,-0.55942 0.83913,-0.92304 0.25174,-0.36363 0.37761,-0.81116 0.37761,-1.34261 0,-0.72725 -0.18181,-1.28667 -0.54544,-1.67827 -0.36362,-0.39159 -0.83913,-0.69927 -1.42652,-0.92304 -0.55942,-0.25174 -1.17478,-0.46152 -1.84609,-0.62935 -0.6713,-0.19579 -1.30065,-0.44753 -1.88804,-0.75521 -0.55942,-0.30769 -1.03493,-0.71327 -1.42652,-1.21674 -0.39159,-0.50348 -0.58739,-1.21674 -0.58739,-2.13979 0,-0.72725 0.13985,-1.35659 0.41956,-1.88804 0.27971,-0.55942 0.64334,-1.02094 1.09087,-1.38457 0.44754,-0.36362 0.93703,-0.62934 1.46848,-0.79717 0.53145,-0.1958 1.04891,-0.2937 1.55239,-0.2937 0.58739,0 1.30066,0.13986 2.13979,0.41957 0.8671,0.25174 2.18174,1.38456 2.18174,1.38456 z" />
        <path
           d="m -514.88485,101.45056 c 0,-0.41153 1.59434,-0.42652 1.59434,0 0,0 0.0167,4.09063 0.042,4.06978 0.55942,-1.31464 1.45449,-2.37754 2.68522,-3.1887 1.23073,-0.81116 2.62928,-1.21674 4.19565,-1.21674 1.53841,0 2.75515,0.43356 3.65022,1.30066 0.89507,0.8671 1.37058,1.99993 1.42653,3.39848 v 11.37022 h -1.76218 v -10.9087 c -0.0559,-0.89507 -0.39159,-1.67826 -1.00696,-2.34957 -0.58739,-0.6713 -1.46847,-1.03493 -2.64326,-1.09087 -0.83913,0 -1.65029,0.15384 -2.43348,0.46153 -0.78319,0.27971 -1.46848,0.6713 -2.05587,1.17478 -0.58739,0.50348 -1.0629,1.10486 -1.42652,1.80413 -0.33565,0.69927 -0.50348,1.46848 -0.50348,2.30761 v 8.60109 h -1.76217 z"
           style="font-style:normal;font-variant:normal;font-weight:normal;font-stretch:normal;font-size:41.9565px;line-height:0;font-family:'Josefin Sans';-inkscape-font-specification:'Josefin Sans';letter-spacing:0px;word-spacing:0px;fill:#e6e6e6;fill-opacity:1;stroke:none;stroke-width:0.548202"
           id="path828" />
        <path
           id="path1035"
           style="font-style:normal;font-variant:normal;font-weight:normal;font-stretch:normal;font-size:41.9565px;line-height:0;font-family:'Josefin Sans';-inkscape-font-specification:'Josefin Sans';letter-spacing:0px;word-spacing:0px;fill:#e6e6e6;fill-opacity:1;stroke:none;stroke-width:0.548202"
           d="m -429.16792,109.00251 c 0,0.89507 0.16783,1.7342 0.50348,2.51739 0.33565,0.78319 0.78319,1.46848 1.34261,2.05587 0.58739,0.58739 1.27268,1.04892 2.05587,1.38457 0.81116,0.33565 1.67826,0.50348 2.60131,0.50348 0.92304,0 1.77616,-0.16783 2.55935,-0.50348 0.78319,-0.33565 1.46848,-0.79718 2.05587,-1.38457 0.58739,-0.58739 1.04891,-1.27268 1.38456,-2.05587 0.33565,-0.78319 0.50348,-1.62232 0.50348,-2.51739 0,-0.89507 -0.16783,-1.7342 -0.50348,-2.51739 -0.33565,-0.81116 -0.79717,-1.51044 -1.38456,-2.09783 -0.58739,-0.58739 -1.27268,-1.04891 -2.05587,-1.38456 -0.78319,-0.33565 -1.63631,-0.50348 -2.55935,-0.50348 -0.92305,0 -1.79015,0.16783 -2.60131,0.50348 -0.78319,0.33565 -1.46848,0.79717 -2.05587,1.38456 -0.55942,0.58739 -1.00696,1.28667 -1.34261,2.09783 -0.33565,0.78319 -0.50348,1.62232 -0.50348,2.51739 z m -1.76217,0 c 0,-1.11884 0.20978,-2.16775 0.62935,-3.14674 0.44753,-1.00696 1.03492,-1.87406 1.76217,-2.60131 0.75522,-0.75521 1.63631,-1.3426 2.64327,-1.76217 1.00695,-0.44753 2.08384,-0.6713 3.23065,-0.6713 0.81116,0 1.58036,0.12587 2.30761,0.3776 0.72725,0.22377 1.38457,0.53146 1.97196,0.92305 0.58739,0.36362 1.07688,0.79717 1.46848,1.30065 0.41956,0.47551 0.72724,0.95101 0.92304,1.42652 0,-0.61536 0.0141,-1.2312 0.042,-1.84608 0.028,-0.61616 0.12587,-1.84609 0.12587,-1.84609 -0.0613,-0.43511 1.42652,-0.41445 1.42652,0 v 12.10085 c 0,0.53145 -1.4746,0.49355 -1.55118,-0.0175 -10e-4,-0.008 1.4e-4,-0.001 1.4e-4,-0.001 -0.16783,0.47551 -0.46287,0.95236 -0.88244,1.42787 -0.39159,0.47551 -0.88109,0.90907 -1.46848,1.30066 -0.55942,0.36362 -1.21674,0.65731 -1.97196,0.88108 -0.72725,0.22377 -1.52442,0.33566 -2.39152,0.33566 -1.14681,0 -2.2237,-0.20978 -3.23065,-0.62935 -1.00696,-0.44754 -1.88805,-1.03493 -2.64327,-1.76218 -0.72725,-0.72725 -1.31464,-1.58036 -1.76217,-2.55935 -0.41957,-1.00695 -0.62935,-2.08384 -0.62935,-3.23065 z" />
        <path
           id="path1095"
           style="font-style:normal;font-variant:normal;font-weight:normal;font-stretch:normal;font-size:41.9565px;line-height:0;font-family:'Josefin Sans';-inkscape-font-specification:'Josefin Sans';letter-spacing:0px;word-spacing:0px;fill:#e6e6e6;fill-opacity:1;stroke:none;stroke-width:0.548202"
           d="m -530.51276,90.329827 c 0,0 -5.06603,12.632233 -5.16066,12.545013 h 10.36327 z m 13.00653,26.810233 h -1.76218 l -5.32848,-12.58696 h -11.78979 c 0,0 -5.20847,12.65079 -5.32848,12.58696 h -1.80413 l 12.31498,-30.454403 c 0.13504,-0.33396 1.20812,-0.32694 1.32664,-0.003 0,0 12.43261,30.640243 12.37144,30.457253 z" />
        <g
           aria-label="e"
           style="font-style:normal;font-variant:normal;font-weight:normal;font-stretch:normal;font-size:42.1053px;line-height:0;font-family:'charllie Personel Use';-inkscape-font-specification:'charllie Personel Use';letter-spacing:0px;word-spacing:0px;fill:#e6e6e6;fill-opacity:1;stroke:none;stroke-width:0.550144"
           id="text1134"
           transform="translate(-0.06127257)">
          <path
             d="m -462.90602,102.47221 c -0.84211,0 -1.64211,0.15438 -2.4,0.46315 -0.75789,0.28071 -1.41754,0.68773 -1.97895,1.22106 -0.5614,0.53333 -1.02456,1.15088 -1.38947,1.85263 -0.33684,0.70175 -0.54737,1.45965 -0.63158,2.27368 -0.0281,0.33684 -0.0421,0.67368 -0.0421,1.01053 0.0281,0.30877 0.0702,0.61754 0.12631,0.92631 1.8807,-0.75789 3.7614,-1.50175 5.64211,-2.23158 1.8807,-0.75789 3.77543,-1.51579 5.6842,-2.27368 -0.47719,-0.95439 -1.1649,-1.72632 -2.06315,-2.31579 -0.89825,-0.61754 -1.8807,-0.92631 -2.94737,-0.92631 z m 7.2421,4.21052 c -2.18947,0.87017 -4.36491,1.74035 -6.52631,2.61053 -2.16141,0.8421 -4.33684,1.69824 -6.52631,2.56842 0.47719,1.06667 1.23508,1.93684 2.27368,2.61052 1.03859,0.67369 2.21754,1.01053 3.53684,1.01053 0.87017,0 1.68421,-0.15439 2.4421,-0.46316 0.7579,-0.30877 1.96363,-1.3359 1.96363,-1.3359 0.53934,-0.22643 1.37096,0.71745 1.11006,1.3359 0,0 -1.5579,1.20702 -2.48421,1.6 -0.92632,0.39298 -1.93685,0.58947 -3.03158,0.58947 -1.15088,0 -2.23158,-0.21053 -3.2421,-0.63158 -0.98246,-0.44912 -1.85264,-1.03859 -2.61053,-1.76842 -0.72983,-0.72982 -1.3193,-1.58596 -1.76842,-2.56842 -0.42105,-1.01053 -0.63158,-2.09123 -0.63158,-3.2421 0,-1.12281 0.21053,-2.18947 0.63158,-3.2 0.44912,-1.01053 1.03859,-1.8807 1.76842,-2.61053 0.75789,-0.72982 1.62807,-1.30526 2.61053,-1.72631 1.01052,-0.44912 2.09122,-0.67368 3.2421,-0.67368 0.84211,0 1.64211,0.15438 2.4,0.46315 0.75789,0.28071 1.44561,0.68773 2.06316,1.22106 0.64561,0.50526 1.20702,1.1228 1.68421,1.85263 0.47719,0.70175 0.8421,1.48772 1.09473,2.35789 z"
             style="font-style:normal;font-variant:normal;font-weight:normal;font-stretch:normal;font-family:'Josefin Sans';-inkscape-font-specification:'Josefin Sans';fill:#e6e6e6;fill-opacity:1;stroke-width:0.550144"
             id="path1136" />
        </g>
      </g>
    </g>
  </g>
</svg>
